<mxfile host="app.diagrams.net" modified="2023-10-24T11:07:55.034Z" agent="Mozilla/5.0 (Macintosh; Intel Mac OS X 10_15_7) AppleWebKit/537.36 (KHTML, like Gecko) Chrome/117.0.0.0 Safari/537.36" etag="udC3rvULisaxnlaFzXvd" version="22.0.6" type="github">
  <diagram name="第 1 页" id="_dnQQNq22X9PDr0l3Up0">
    <mxGraphModel dx="775" dy="444" grid="1" gridSize="10" guides="1" tooltips="1" connect="1" arrows="1" fold="1" page="1" pageScale="1" pageWidth="1169" pageHeight="827" math="1" shadow="0">
      <root>
        <mxCell id="0" />
        <mxCell id="1" parent="0" />
        <mxCell id="wSSXeLF1kZ9mJ8V0Gp6w-3" value="" style="rounded=0;whiteSpace=wrap;html=1;fontFamily=Times New Roman;fontStyle=0;fillColor=#f5f5f5;fontColor=#333333;strokeColor=#666666;" vertex="1" parent="1">
          <mxGeometry x="220" y="40" width="300" height="280" as="geometry" />
        </mxCell>
        <mxCell id="wSSXeLF1kZ9mJ8V0Gp6w-9" value="\(\boldsymbol{r}^*\)" style="text;html=1;align=center;verticalAlign=middle;resizable=0;points=[];autosize=1;strokeColor=none;fillColor=none;fontFamily=Times New Roman;fontStyle=0;fontColor=#FF0000;" vertex="1" parent="1">
          <mxGeometry x="240" y="77.25" width="130" height="30" as="geometry" />
        </mxCell>
        <mxCell id="wSSXeLF1kZ9mJ8V0Gp6w-8" value="" style="rounded=0;whiteSpace=wrap;html=1;fontFamily=Times New Roman;fontStyle=0" vertex="1" parent="1">
          <mxGeometry x="230" y="150" width="280" height="95" as="geometry" />
        </mxCell>
        <mxCell id="wSSXeLF1kZ9mJ8V0Gp6w-13" value="&lt;span style=&quot;&quot;&gt;\(f^{(2)}(\boldsymbol{\theta}_2;\cdot)\)&lt;/span&gt;" style="text;html=1;align=center;verticalAlign=middle;resizable=0;points=[];autosize=1;strokeColor=none;fillColor=none;fontFamily=Times New Roman;fontStyle=0" vertex="1" parent="1">
          <mxGeometry x="238.5" y="220" width="220" height="30" as="geometry" />
        </mxCell>
        <mxCell id="wSSXeLF1kZ9mJ8V0Gp6w-342" value="&lt;span style=&quot;&quot;&gt;\(f^{(1)}(\boldsymbol{\theta}_1;\cdot)\)&lt;/span&gt;" style="text;html=1;align=center;verticalAlign=middle;resizable=0;points=[];autosize=1;strokeColor=none;fillColor=none;fontFamily=Times New Roman;fontStyle=0" vertex="1" parent="1">
          <mxGeometry x="149.5" y="220" width="220" height="30" as="geometry" />
        </mxCell>
        <mxCell id="wSSXeLF1kZ9mJ8V0Gp6w-86" value="RX Antenna" style="text;html=1;align=center;verticalAlign=middle;resizable=0;points=[];autosize=1;strokeColor=none;fillColor=none;fontFamily=Times New Roman;fontStyle=0" vertex="1" parent="1">
          <mxGeometry x="224" y="114" width="80" height="30" as="geometry" />
        </mxCell>
        <mxCell id="wSSXeLF1kZ9mJ8V0Gp6w-90" value="\(\boldsymbol{n}\)" style="text;html=1;align=center;verticalAlign=middle;resizable=0;points=[];autosize=1;strokeColor=none;fillColor=none;fontFamily=Times New Roman;fontStyle=0;fontColor=#666666;" vertex="1" parent="1">
          <mxGeometry x="143" y="28.75" width="120" height="30" as="geometry" />
        </mxCell>
        <mxCell id="wSSXeLF1kZ9mJ8V0Gp6w-14" value="\(\boldsymbol{h}_{nor}\)" style="text;html=1;align=center;verticalAlign=middle;resizable=0;points=[];autosize=1;strokeColor=none;fillColor=none;fontFamily=Times New Roman;fontStyle=0" vertex="1" parent="1">
          <mxGeometry x="115" y="83.75" width="150" height="30" as="geometry" />
        </mxCell>
        <mxCell id="wSSXeLF1kZ9mJ8V0Gp6w-10" value="" style="rounded=0;whiteSpace=wrap;html=1;fontFamily=Times New Roman;fontStyle=0;fillColor=#f5f5f5;fontColor=#333333;strokeColor=#666666;" vertex="1" parent="1">
          <mxGeometry x="80" y="40" width="90" height="130" as="geometry" />
        </mxCell>
        <mxCell id="wSSXeLF1kZ9mJ8V0Gp6w-71" value="\(\boldsymbol{x}\)" style="text;html=1;align=center;verticalAlign=middle;resizable=0;points=[];autosize=1;strokeColor=none;fillColor=none;fontFamily=Times New Roman;fontStyle=0" vertex="1" parent="1">
          <mxGeometry x="83" y="73" width="120" height="30" as="geometry" />
        </mxCell>
        <mxCell id="wSSXeLF1kZ9mJ8V0Gp6w-1" value="" style="rounded=0;whiteSpace=wrap;html=1;fontFamily=Times New Roman;fontStyle=0;fillColor=#ffe6cc;strokeColor=#d79b00;" vertex="1" parent="1">
          <mxGeometry x="80" y="190" width="90" height="130" as="geometry" />
        </mxCell>
        <mxCell id="wSSXeLF1kZ9mJ8V0Gp6w-4" value="\(\boldsymbol{x}^*\)" style="text;html=1;align=center;verticalAlign=middle;resizable=0;points=[];autosize=1;strokeColor=none;fillColor=none;fontFamily=Times New Roman;fontStyle=0;fontColor=#FF0000;" vertex="1" parent="1">
          <mxGeometry x="83" y="215" width="130" height="30" as="geometry" />
        </mxCell>
        <mxCell id="wSSXeLF1kZ9mJ8V0Gp6w-5" value="\(\boldsymbol{h}_{atk}\)" style="text;html=1;align=center;verticalAlign=middle;resizable=0;points=[];autosize=1;strokeColor=none;fillColor=none;fontFamily=Times New Roman;fontStyle=0;fontColor=#FF0000;" vertex="1" parent="1">
          <mxGeometry x="116" y="171.25" width="150" height="30" as="geometry" />
        </mxCell>
        <mxCell id="wSSXeLF1kZ9mJ8V0Gp6w-6" value="\(\boldsymbol{r}\)" style="text;html=1;align=center;verticalAlign=middle;resizable=0;points=[];autosize=1;strokeColor=none;fillColor=none;fontFamily=Times New Roman;fontStyle=0" vertex="1" parent="1">
          <mxGeometry x="247" y="51.75" width="110" height="30" as="geometry" />
        </mxCell>
        <mxCell id="wSSXeLF1kZ9mJ8V0Gp6w-7" value="" style="shape=image;verticalLabelPosition=bottom;labelBackgroundColor=default;verticalAlign=top;aspect=fixed;imageAspect=0;image=data:image/svg+xml,PHN2ZyB4bWxuczp4bGluaz0iaHR0cDovL3d3dy53My5vcmcvMTk5OS94bGluayIgeG1sbnM9Imh0dHA6Ly93d3cudzMub3JnLzIwMDAvc3ZnIiBoZWlnaHQ9IjIwMCIgd2lkdGg9IjIwMCIgdmVyc2lvbj0iMS4xIiB2aWV3Qm94PSIwIDAgMTAyNCAxMDI0IiBjbGFzcz0iaWNvbiI+PHBhdGggZmlsbD0iIzJjMmMyYyIgZD0iTTEwMDYuODM0MTkgODg3LjQ3MDg1NGgtNTEuMTk4NDI5di01MS4xOTg0M2ExNy4wNjYxNDMgMTcuMDY2MTQzIDAgMCAwLTE3LjA2NjE0NC0xNy4wNjYxNDRoLTg1LjMzMDcxNnYtMjU1Ljk5MjE0OWExNy4wNjYxNDMgMTcuMDY2MTQzIDAgMCAwLTE3LjA2NjE0NC0xNy4wNjYxNDRoLTE4Ny43Mjc1NzZ2LTE0Ni41Mjk5MDZsMjkuMTQ4OTczLTI5LjE0ODk3M2MwLjQ0MzcyLTAuNDQzNzIgMC42MTQzODEtMS4wMjM5NjkgMC45ODk4MzYtMS40Njc2ODggNzUuMzY0MDg5IDcwLjQ0OTA0IDE2My41NjE5MTcgMTA5LjM1OTg0NiAyMzYuNDM0MzQ5IDEwOS4zNTk4NDYgNDEuNDAyNDY0IDAgNzcuNzg3NDgxLTEyLjQ1ODI4NSAxMDMuODk4NjgxLTM4LjU2OTQ4NGExNy4wNjYxNDMgMTcuMDY2MTQzIDAgMCAwIDAtMjQuMTMxNTI2TDgyNS42NjAwMTMgMjIyLjQwMzI0OWw1Ni43Mjc4Ni01Ni43Mjc4NiAwLjEwMjM5Ny0wLjEzNjUzYzYuNjU1Nzk2IDMuMjA4NDM1IDE0LjA2MjUwMiA1LjE1Mzk3NSAyMS45NDcwNjEgNS4xNTM5NzYgMjguMjI3NDAxIDAgNTEuMTk4NDMtMjIuOTcxMDI5IDUxLjE5ODQzLTUxLjE5ODQzcy0yMi45NzEwMjktNTEuMTk4NDMtNTEuMTk4NDMtNTEuMTk4NDMtNTEuMTk4NDMgMjIuOTcxMDI5LTUxLjE5ODQzIDUxLjE5ODQzYzAgNy44ODQ1NTggMS45NDU1NCAxNS4yOTEyNjQgNS4xNTM5NzUgMjEuOTgxMTkybC0wLjEzNjUyOSAwLjEwMjM5Ny01Ni43Mjc4NjEgNTYuNzI3ODYxTDYwOC4yNzE0OCA1LjA0ODg0OGExNy4wNjYxNDMgMTcuMDY2MTQzIDAgMCAwLTI0LjEzMTUyNyAwYy03Mi4wODczODkgNzIuMDg3Mzg5LTM5LjgzMjM3OCAyMjIuMjM1MzE4IDcwLjY1MzgzMyAzNDAuNDM1NDI2LTAuNDQzNzIgMC4zNDEzMjMtMC45NTU3MDQgMC41MTE5ODQtMS4zNjUyOTEgMC44ODc0NGwtMzQuMTMyMjg3IDM0LjEzMjI4N2ExNy4wNjYxNDMgMTcuMDY2MTQzIDAgMCAwLTQuOTgzMzE0IDEyLjA0ODY5N1Y1NDYuMTQ3OTg3aC0xODcuNzI3NTc2YTE3LjA2NjE0MyAxNy4wNjYxNDMgMCAwIDAtMTcuMDY2MTQzIDE3LjA2NjE0NFY4MTkuMjA2MjhoLTEwMi4zOTY4NlYyMjEuODkxMjY1YTE3LjIwMjY3MiAxNy4yMDI2NzIgMCAwIDAtNC45ODMzMTQtMTIuMDgyODNsLTIwNC43OTM3Mi0yMDQuNzkzNzE5YTE3LjA2NjE0MyAxNy4wNjYxNDMgMCAwIDAtMjQuMTMxNTI2IDI0LjEzMTUyNmwxOTkuODEwNDA2IDE5OS44MTA0MDZWODE5LjIwNjI4aC02OC4yNjQ1NzRWNDYwLjgxNzI3MWExNy4yMDI2NzIgMTcuMjAyNjcyIDAgMCAwLTQuOTgzMzEzLTEyLjA4MjgzbC0xMDIuMzk2ODYtMTAyLjM5Njg1OWExNy4wNjYxNDMgMTcuMDY2MTQzIDAgMCAwLTI0LjEzMTUyNyAyNC4xMzE1MjZMMTcwLjY2MTQzMyA0NjcuODgyNjU0VjgxOS4yMDYyOEg4NS4zMzA3MTdhMTcuMDY2MTQzIDE3LjA2NjE0MyAwIDAgMC0xNy4wNjYxNDQgMTcuMDY2MTQ0Vjg4Ny40NzA4NTRIMTcuMDY2MTQzYTE3LjA2NjE0MyAxNy4wNjYxNDMgMCAwIDAtMTcuMDY2MTQzIDE3LjA2NjE0M3YxMDIuMzk2ODZhMTcuMDY2MTQzIDE3LjA2NjE0MyAwIDAgMCAxNy4wNjYxNDMgMTcuMDY2MTQzaDk4OS44MzYzMTJhMTcuMDY2MTQzIDE3LjA2NjE0MyAwIDAgMCAxNy4wNjYxNDMtMTcuMDY2MTQzdi0xMDIuMzk2ODZhMTcuMTY4NTQgMTcuMTY4NTQgMCAwIDAtMTcuMTM0NDA4LTE3LjA2NjE0M3ogbS00NjAuNzg1ODY5LTE1My41OTUyOWExNy4wNjYxNDMgMTcuMDY2MTQzIDAgMCAxLTM0LjEzMjI4NiAwdi02OC4yNjQ1NzNhMTcuMDY2MTQzIDE3LjA2NjE0MyAwIDAgMSAzNC4xMzIyODYgMHY2OC4yNjQ1NzN6IG0xMDIuMzk2ODYgMGExNy4wNjYxNDMgMTcuMDY2MTQzIDAgMCAxLTM0LjEzMjI4NyAwdi02OC4yNjQ1NzNhMTcuMDY2MTQzIDE3LjA2NjE0MyAwIDAgMSAzNC4xMzIyODcgMHY2OC4yNjQ1NzN6IG0xMDIuMzk2ODYgMGExNy4wNjYxNDMgMTcuMDY2MTQzIDAgMCAxLTM0LjEzMjI4NyAwdi02OC4yNjQ1NzNhMTcuMDY2MTQzIDE3LjA2NjE0MyAwIDAgMSAzNC4xMzIyODcgMHY2OC4yNjQ1NzN6Ii8+PC9zdmc+;fontFamily=Times New Roman;" vertex="1" parent="1">
          <mxGeometry x="239" y="65" width="50" height="50" as="geometry" />
        </mxCell>
        <mxCell id="wSSXeLF1kZ9mJ8V0Gp6w-11" value="" style="shape=image;verticalLabelPosition=bottom;labelBackgroundColor=default;verticalAlign=top;aspect=fixed;imageAspect=0;image=data:image/svg+xml,PHN2ZyB4bWxuczp4bGluaz0iaHR0cDovL3d3dy53My5vcmcvMTk5OS94bGluayIgeG1sbnM9Imh0dHA6Ly93d3cudzMub3JnLzIwMDAvc3ZnIiBoZWlnaHQ9IjIwMCIgd2lkdGg9IjIwMCIgdmVyc2lvbj0iMS4xIiB2aWV3Qm94PSIwIDAgMTAyNCAxMDI0IiBjbGFzcz0iaWNvbiI+PHBhdGggZmlsbD0iI2Q4MWUwNiIgZD0iTTM0Ny41NDk5NTcgNTE5LjU2MDE3bC0xMTAuOTE4ODA4LTU5LjkxNDg5MyAxMTAuMTEyNjgxLTk2LjM0MzE0OWMxLjU0Njg5NCAxNy43NTY1OTYgMi4xNzg3MjMgMzMuNjgzMDY0IDQuNDY2MzgzIDQ5LjM5MTY1OWEzMDUuODkyNzY2IDMwNS44OTI3NjYgMCAwIDAgMzUuMDEyMDg1IDEwNy4yODAzNDEgMTM0LjI3NDcyMyAxMzQuMjc0NzIzIDAgMCAwIDIzNS44OTAzODMtMi40ODM3NDUgMzAwLjY2MzgzIDMwMC42NjM4MyAwIDAgMCAzMS45ODM2NTktMTQyLjcyODE3di0xMy41Mjk4NzNsMi42MTQ0NjktMS40NTk3NDQgMTE0LjM2MTE5MSA5OS43ODU1MzItMTExLjExNDg5NCA2MC4yNjM0ODljMjIuMTE0MDQzIDYuNTM2MTcgNDQuMDc1NTc0IDExLjc2NTEwNiA2NC44ODIzODMgMTkuODI2MzgzYTkxLjUwNjM4MyA5MS41MDYzODMgMCAwIDEgNTcuODg4NjgxIDUyLjI4OTM2MmMyMC44MDY4MDkgNTcuMzAwNDI2IDQwLjk2IDExNC44MTg3MjMgNjAuNDU5NTc1IDE3Mi41NzY2ODFhNjcuNTQwNDI2IDY3LjU0MDQyNiAwIDAgMS0yOS4zMDM4MyA3OC4zMDMzMTljLTQuNTc1MzE5IDIuNzY2OTc5LTkuNDU1NjYgNS4wNTQ2MzgtMTQuNDg4NTExIDYuODYyOTc4LTE5LjYwODUxMSA3LjMyMDUxMS0zOS4zNDc3NDUgMTQuNDAxMzYyLTYwLjU0NjcyMyAyMi4xMTQwNDNsMTYuNTE0NzIzLTIyNy44MDczMTlIMjUyLjIwOTAyMWwxNi43MTA4MDkgMjI5Ljc0NjM4M2MtMjYuODg1NDQ3LTEwLjQxNDI5OC01Mi42Mzc5NTctMTguMjU3NzAyLTc2LjM4NjA0My0zMC4xMDk5NThhNjYuMDE1MzE5IDY2LjAxNTMxOSAwIDAgMS0zMC4xMDk5NTctODMuMDc0NzIzIDUzMzguMzUxNjYgNTMzOC4zNTE2NiAwIDAgMSA1NC44Mzg0NjgtMTQ5LjgzMDgwOWM0Ljk0NTcwMi0xNC40ODg1MTEgMTIuMTM1NDg5LTI4LjEwNTUzMiAyMS4zMDc5MTUtNDAuMzQ5OTU3YTE0NS4wODExOTEgMTQ1LjA4MTE5MSAwIDAgMSA4NC45NzAyMTMtNDMuOTIzMDY0YzcuOTMwNTUzLTEuODczNzAyIDE1Ljk5MTgzLTMuMDkzNzg3IDIzLjk2NTk1Ny00LjU5NzEwNmwwLjA0MzU3NC0yLjI4NzY2eiIvPjxwYXRoIGZpbGw9IiNkODFlMDYiIGQ9Ik0yODAuMjI3NDA0IDY3NS41NTY3NjZoNDQ3LjE4Mjk3OWwtMTUuMDc2NzY2IDIyMi45MDUxOTFIMjk1LjUwMDI1NWMtNS4wOTgyMTMtNzMuNjg0NDI2LTEwLjEzMTA2NC0xNDcuNjA4NTExLTE1LjI3Mjg1MS0yMjIuOTA1MTkxek0yMTQuNTM4ODk0IDI2OS45NjU2MTdjMTQuNTUzODcyLTMuMDkzNzg3IDI4Ljk1NTIzNC03LjIzMzM2MiA0My41NzQ0NjgtOS4wODUyNzdhMTM5MC4zMzA1NTMgMTM5MC4zMzA1NTMgMCAwIDEgNzYuNzM0NjM4LTcuMTQ2MjEyYzYuNzU0MDQzIDAuMjE3ODcyIDEyLjg3NjI1NS0zLjkyMTcwMiAxNS4yNTEwNjQtMTAuMjRhNzA0LjIwNjk3OSA3MDQuMjA2OTc5IDAgMCAxIDcwLjUwMzQ4OS0xMjAuOTQwOTM3YzIuODEwNTUzLTMuNzAzODMgNS45NDc5MTUtNy4xMjQ0MjYgOC43MTQ4OTQtMTAuODkzNjE3IDIxLjExMTgzLTI2Ljk3MjU5NiA0Ni40Mjg1OTYtMjYuMjc1NDA0IDc3LjMwMTEwNi0xMC4yNjE3ODcgMi45ODQ4NTEgMS4yNjM2NiA2LjMxODI5OCAxLjQzNzk1NyA5LjQxMjA4NSAwLjQ3OTMxOSA5LjU0MjgwOS0yLjg5NzcwMiAxOC45NTQ4OTQtNi4yNTI5MzYgMjguMzIzNDA1LTkuODI2MDQyYTE1LjI1MTA2NCAxNS4yNTEwNjQgMCAwIDEgMjEuMDQ2NDY4IDguNzE0ODkzYzE0LjMzNiAyNi4zMTg5NzkgMjkuMDIwNTk2IDUyLjQ0MTg3MiA0Mi45NjQ0MjUgNzguOTc4NzI0IDExLjEzMzI3NyAyMS4xNTU0MDQgMjEuNjM0NzIzIDQyLjY1OTQwNCAzMS44NTI5MzYgNjQuMjcyMzQgMi4xMzUxNDkgNS42NjQ2ODEgNy41NjAxNyA5LjQxMjA4NSAxMy42MTcwMjIgOS4zNjg1MTEgMzMuNzA0ODUxIDMuMjg5ODcyIDY3LjM2NjEyOCA3LjE2OCAxMDAuOTgzODI5IDExLjM3MjkzNiA3Ljg0MzQwNCAxLjMwNzIzNCAxNS4zMTY0MjYgNC4zNTc0NDcgMjEuNzg3MjM0IDguOTk4MTI4YTkxLjUwNjM4MyA5MS41MDYzODMgMCAwIDEtMTQuNTUzODcyIDcuMzQyMjk4Yy00OC4xMDYyMTMgMTQuNTc1NjYtOTUuOTk0NTUzIDMwLjA0NDU5Ni0xNDQuNjAxODcyIDQyLjgxMTkxNS0zNS4xMjEwMjEgOS4yMzc3ODctNzEuMDY5OTU3IDE1LjU1NjA4NS0xMDYuOTA5OTU4IDIxLjc4NzIzNGEyMTUuMjc5NjYgMjE1LjI3OTY2IDAgMCAxLTgxLjQ4NDI1NS04LjcxNDg5NCAxNDE2LjQzMTY2IDE0MTYuNDMxNjYgMCAwIDEtMTk4Ljg1MjA4NS01NS4zMzk1NzVjLTUuNTEyMTctMi4wNDgtMTAuNjUzOTU3LTUuMDMyODUxLTE1Ljk3MDA0My03LjYwMzc0NGwwLjMwNTAyMi00LjA3NDIxM3pNNDg3Ljc1MDgwOSAzODQuODI3OTE1aDI4LjU4NDg1MWEzNi44ODU3ODcgMzYuODg1Nzg3IDAgMCAxIDM3LjAzODI5Ny0zMi4xMTQzODMgMjI3LjkzODA0MyAyMjcuOTM4MDQzIDAgMCAxIDM3LjI1NjE3MS0yLjY1ODA0MyA1NC40NjgwODUgNTQuNDY4MDg1IDAgMCAxIDUxLjUyNjgwOCA1Ni4yNTQ2MzkgNTMuNTMxMjM0IDUzLjUzMTIzNCAwIDAgMS01NS41NzkyMzQgNTMuMDUxOTE1IDYzLjk0NTUzMiA2My45NDU1MzIgMCAwIDEtMjguNDk3NzAyLTEwLjQzNjA4NiA5MS41MDYzODMgOTEuNTA2MzgzIDAgMCAxLTM2LjE4ODU5Ni00My45NjY2MzhjLTMuOTg3MDY0LTkuOTc4NTUzLTEyLjI4OC05LjkzNDk3OS0yMC4zNzEwNjQtMTAuMDAwMzQtOC4wODMwNjQtMC4wNjUzNjItMTUuMjUxMDY0IDAuNjc1NDA0LTE5LjA4NTYxNyAxMC4xNzQ2MzhhOTYuNjI2MzgzIDk2LjYyNjM4MyAwIDAgMS0zNy4wMzgyOTcgNDQuNzI5MTkyIDUxLjY3OTMxOSA1MS42NzkzMTkgMCAwIDEtNzYuMjU1MzItMTguMTA1MTkyIDU0LjgzODQ2OCA1NC44Mzg0NjggMCAwIDEgMjUuMTg2MDQzLTc2LjkzMDcyMyA5OC42NzQzODMgOTguNjc0MzgzIDAgMCAxIDY4LjE3MjI1NSAwLjg0OTcwMmMxNi4wMzU0MDQgNC42NjI0NjggMjEuMTU1NDA0IDExLjMyOTM2MiAyNS4yNTE0MDUgMjkuMTUxMzE5ek03MDkuMDIxOTU3IDkxNS4wMjAyNTVjMC4yMzk2NiAxNS41NTYwODUtMi4yODc2NiAxOC42NzE2Ni0xNS4xMjAzNCAxOC42NzE2NkgzMTQuMTA2NTUzYy0xMy4wNzIzNCAwLTE1LjI1MTA2NC0yLjQ0MDE3LTE1LjkwNDY4MS0xOC42MDYyOThsNDEwLjgyMDA4NS0wLjA2NTM2MnoiLz48L3N2Zz4=;fontFamily=Times New Roman;fontStyle=0" vertex="1" parent="1">
          <mxGeometry x="95" y="210" width="60" height="60" as="geometry" />
        </mxCell>
        <mxCell id="wSSXeLF1kZ9mJ8V0Gp6w-12" style="rounded=0;orthogonalLoop=1;jettySize=auto;html=1;exitX=1;exitY=0.25;exitDx=0;exitDy=0;dashed=1;endArrow=blockThin;endFill=1;strokeColor=#FF0000;fontStyle=0;fontFamily=Times New Roman;entryX=0;entryY=0.5;entryDx=0;entryDy=0;" edge="1" parent="1" source="wSSXeLF1kZ9mJ8V0Gp6w-11" target="wSSXeLF1kZ9mJ8V0Gp6w-7">
          <mxGeometry relative="1" as="geometry">
            <mxPoint x="200" y="150" as="targetPoint" />
          </mxGeometry>
        </mxCell>
        <mxCell id="wSSXeLF1kZ9mJ8V0Gp6w-60" value="Transmitter" style="text;html=1;align=center;verticalAlign=middle;resizable=0;points=[];autosize=1;strokeColor=none;fillColor=none;fontFamily=Times New Roman;fontStyle=1;fontSize=14;" vertex="1" parent="1">
          <mxGeometry x="75" y="40" width="100" height="30" as="geometry" />
        </mxCell>
        <mxCell id="wSSXeLF1kZ9mJ8V0Gp6w-61" value="Receiver" style="text;html=1;align=center;verticalAlign=middle;resizable=0;points=[];autosize=1;strokeColor=none;fillColor=none;fontFamily=Times New Roman;fontStyle=1;fontSize=14;" vertex="1" parent="1">
          <mxGeometry x="220" y="40" width="80" height="30" as="geometry" />
        </mxCell>
        <mxCell id="wSSXeLF1kZ9mJ8V0Gp6w-62" value="Adversarial&lt;br&gt;Attacker" style="text;html=1;align=center;verticalAlign=middle;resizable=0;points=[];autosize=1;strokeColor=none;fillColor=none;fontFamily=Times New Roman;fontStyle=1;fontSize=14;fontColor=#FF0000;" vertex="1" parent="1">
          <mxGeometry x="80" y="260" width="90" height="50" as="geometry" />
        </mxCell>
        <mxCell id="wSSXeLF1kZ9mJ8V0Gp6w-63" value="DNN Model" style="text;html=1;align=center;verticalAlign=middle;resizable=0;points=[];autosize=1;strokeColor=none;fillColor=none;fontFamily=Times New Roman;fontStyle=1" vertex="1" parent="1">
          <mxGeometry x="353" y="145" width="90" height="30" as="geometry" />
        </mxCell>
        <mxCell id="wSSXeLF1kZ9mJ8V0Gp6w-65" value="Modulation&lt;br&gt;Classification" style="rounded=1;whiteSpace=wrap;html=1;fontFamily=Times New Roman;fontStyle=0" vertex="1" parent="1">
          <mxGeometry x="322" y="67.25" width="140" height="40" as="geometry" />
        </mxCell>
        <mxCell id="wSSXeLF1kZ9mJ8V0Gp6w-67" style="rounded=0;orthogonalLoop=1;jettySize=auto;html=1;endArrow=blockThin;endFill=1;fontStyle=0;fontFamily=Times New Roman;exitX=1;exitY=0.5;exitDx=0;exitDy=0;entryX=0;entryY=0.5;entryDx=0;entryDy=0;" edge="1" parent="1" source="wSSXeLF1kZ9mJ8V0Gp6w-83" target="wSSXeLF1kZ9mJ8V0Gp6w-7">
          <mxGeometry relative="1" as="geometry">
            <mxPoint x="170" y="150" as="sourcePoint" />
            <mxPoint x="200" y="150" as="targetPoint" />
          </mxGeometry>
        </mxCell>
        <mxCell id="wSSXeLF1kZ9mJ8V0Gp6w-68" value="TX Antenna" style="text;html=1;align=center;verticalAlign=middle;resizable=0;points=[];autosize=1;strokeColor=none;fillColor=none;fontFamily=Times New Roman;fontStyle=0" vertex="1" parent="1">
          <mxGeometry x="85" y="114" width="80" height="30" as="geometry" />
        </mxCell>
        <mxCell id="wSSXeLF1kZ9mJ8V0Gp6w-77" value="" style="shape=flexArrow;endArrow=classic;html=1;rounded=0;endWidth=12.16873985938345;endSize=2.3581395348837213;width=8.837209302325581;entryX=0.5;entryY=1;entryDx=0;entryDy=0;exitX=0.5;exitY=0;exitDx=0;exitDy=0;fontStyle=0;fontFamily=Times New Roman;" edge="1" parent="1">
          <mxGeometry width="50" height="50" relative="1" as="geometry">
            <mxPoint x="392.76" y="136" as="sourcePoint" />
            <mxPoint x="392.76" y="107.25" as="targetPoint" />
          </mxGeometry>
        </mxCell>
        <mxCell id="wSSXeLF1kZ9mJ8V0Gp6w-81" style="rounded=0;orthogonalLoop=1;jettySize=auto;html=1;dashed=1;endArrow=none;endFill=0;strokeColor=#FF0000;fontStyle=0;fontFamily=Times New Roman;exitX=1;exitY=0.5;exitDx=0;exitDy=0;entryX=0;entryY=0.5;entryDx=0;entryDy=0;startArrow=blockThin;startFill=1;" edge="1" parent="1" source="wSSXeLF1kZ9mJ8V0Gp6w-11" target="wSSXeLF1kZ9mJ8V0Gp6w-8">
          <mxGeometry relative="1" as="geometry">
            <mxPoint x="160" y="220" as="sourcePoint" />
            <mxPoint x="240" y="390" as="targetPoint" />
          </mxGeometry>
        </mxCell>
        <mxCell id="wSSXeLF1kZ9mJ8V0Gp6w-82" value="1.confuse" style="text;html=1;align=center;verticalAlign=middle;resizable=0;points=[];autosize=1;strokeColor=none;fillColor=none;fontColor=#FF0000;fontFamily=Times New Roman;fontSize=12;fontStyle=1" vertex="1" parent="1">
          <mxGeometry x="159" y="224" width="70" height="30" as="geometry" />
        </mxCell>
        <mxCell id="wSSXeLF1kZ9mJ8V0Gp6w-83" value="" style="shape=image;verticalLabelPosition=bottom;labelBackgroundColor=default;verticalAlign=top;aspect=fixed;imageAspect=0;image=data:image/svg+xml,PHN2ZyB4bWxuczp4bGluaz0iaHR0cDovL3d3dy53My5vcmcvMTk5OS94bGluayIgeG1sbnM9Imh0dHA6Ly93d3cudzMub3JnLzIwMDAvc3ZnIiBoZWlnaHQ9IjIwMCIgd2lkdGg9IjIwMCIgdmVyc2lvbj0iMS4xIiB2aWV3Qm94PSIwIDAgMTAyNCAxMDI0IiBjbGFzcz0iaWNvbiI+PHBhdGggZmlsbD0iIzJjMmMyYyIgZD0iTTg4My44NzA0OCA5NzMuODA4bC00OS40LTk4LjhhMTAxLjg0IDEwMS44NCAwIDAgMC05MS41OTItNTYuNmgtMTYuMjQ4TDU4NC4xMTA0OCAyNDIuNTEyYTEwMi4wOCAxMDIuMDggMCAwIDAgMzAuMjk2LTcyLjY0YzAtNTYuNDU2LTQ1LjkzNi0xMDIuNC0xMDIuNC0xMDIuNC01Ni40NjQgMC0xMDIuNCA0NS45NDQtMTAyLjQgMTAyLjRhMTAyLjA4IDEwMi4wOCAwIDAgMCAzMC4yOTYgNzIuNjRsLTE0Mi41MiA1NzUuODk2aC0xNS4yYTEwMS45NiAxMDEuOTYgMCAwIDAtOTEuMiA1NS44MzJsLTUwLjcwNCA5OS4zMTJjLTExLjYgMjIuNzA0IDQuOTYgNDkuNjU2IDMwLjQgNDkuNjU2aDY4Mi42NTZjMjUuMzEyIDAgNDEuODgtMjYuNzA0IDMwLjUzNi00OS40eiBtLTI0My40OC0yMTkuNjhsLTc3LjAwOC02OC40NTYgNDkuMjQtNDMuNzY4IDI3Ljc2OCAxMTIuMjE2eiBtLTMwLjQyNCA2NC4yOGgtMTk1LjkyTDUxMi4wMDY0OCA3MzEuMzM2bDk3Ljk2IDg3LjA3MnpNNTEyLjAwNjQ4IDEzNS43NDRhMzQuMTc2IDM0LjE3NiAwIDAgMSAzNC4xMzYgMzQuMTM2QTM0LjE3NiAzNC4xNzYgMCAwIDEgNTEyLjAwNjQ4IDIwNC4wMTZhMzQuMTc2IDM0LjE3NiAwIDAgMS0zNC4xMzYtMzQuMTM2QTM0LjE3NiAzNC4xNzYgMCAwIDEgNTEyLjAwNjQ4IDEzNS43NDR6IG0tOS4wNCAxMzYuMTEyYzIuOTg0IDAuMjY0IDYgMC40MjQgOS4wNCAwLjQyNCAzLjA0IDAgNi4wNTYtMC4xNiA5LjA0LTAuNDI0bDMzLjg4OCAxMzYuOTZINDY5LjA3ODQ4bDMzLjg4OC0xMzYuOTZ6IG0tNTAuNzg0IDIwNS4yMjRoMTE5LjY0OGwyMi4yNjQgODkuOTUyTDUxMi4wMDY0OCA2NDBsLTgyLjA4LTcyLjk2IDIyLjI1Ni04OS45NTJ6IG0tNDAuNzg0IDE2NC44MjRsNDkuMjMyIDQzLjc2LTc3LjAwOCA2OC40NTYgMjcuNzc2LTExMi4yMTZ6IG0tMTg0Ljk2OCAzMTMuMDRsMjUuMzYtNDkuNjU2YTMzLjk4NCAzMy45ODQgMCAwIDEgMzAuNC0xOC42MTZoNDYwLjY4OGMxMy4wMTYgMCAyNC43MTIgNy4yMzIgMzAuNTI4IDE4Ljg3MmwyNC43MDQgNDkuNGgtNTcxLjY4eiBtNzc3LjUyLTkyNy4xNDRhNTEzLjI0OCA1MTMuMjQ4IDAgMCAxIDAgMjg0LjE1MiAzNC4xMjggMzQuMTI4IDAgMSAxLTY1LjU3Ni0xOC45NiA0NDQuOTQ0IDQ0NC45NDQgMCAwIDAgMC0yNDYuMjI0IDM0LjEzNiAzNC4xMzYgMCAwIDEgNjUuNTc2LTE4Ljk2ek04Ni40OTQ0OCA0My44NDhhNDQ0Ljg0OCA0NDQuODQ4IDAgMCAwIDAgMjUyLjA1NiAzNC4xMjggMzQuMTI4IDAgMSAxLTY1LjQ0IDE5LjQyNCA1MTMuMTA0IDUxMy4xMDQgMCAwIDEgMC0yOTAuODk2IDM0LjEyOCAzNC4xMjggMCAxIDEgNjUuNDQgMTkuNDE2eiBtNzg0LjYxNiAxNi4yOGEzNzYuMTA0IDM3Ni4xMDQgMCAwIDEgMCAyMTkuNDk2IDM0LjEzNiAzNC4xMzYgMCAwIDEtNjUuMjgtMTkuOTkyIDMwNy43OTIgMzA3Ljc5MiAwIDAgMCAwLTE3OS41MiAzNC4xMzYgMzQuMTM2IDAgMCAxIDY1LjI4LTE5Ljk4NHpNMjE5LjA2MjQ4IDc3LjMwNGEzMDcuNzM2IDMwNy43MzYgMCAwIDAgMCAxODUuMTUyIDM0LjEzNiAzNC4xMzYgMCAwIDEtNjUuMDggMjAuNjE2IDM3NS45NiAzNzUuOTYgMCAwIDEgMC0yMjYuMzg0IDM0LjEyOCAzNC4xMjggMCAxIDEgNjUuMDggMjAuNjE2eiBtNTE4Ljc5MiAxNC41MjhhMjM5LjEyOCAyMzkuMTI4IDAgMCAxIDAgMTU2LjA4OCAzNC4xMzYgMzQuMTM2IDAgMCAxLTY0LjUwNC0yMi4zNDQgMTcwLjg2NCAxNzAuODY0IDAgMCAwIDAtMTExLjM5MiAzNC4xMzYgMzQuMTM2IDAgMCAxIDY0LjUwNC0yMi4zNTJ6IG0tMzg2LjI2NCAxOS43NmExNzAuNzYgMTcwLjc2IDAgMCAwIDAgMTE2LjU2IDM0LjEyOCAzNC4xMjggMCAxIDEtNjQuMTM2IDIzLjM4NCAyMzkuMDA4IDIzOS4wMDggMCAwIDEgMC0xNjMuMzIgMzQuMTI4IDM0LjEyOCAwIDEgMSA2NC4xMzYgMjMuMzg0eiIvPjwvc3ZnPg==;fontFamily=Times New Roman;" vertex="1" parent="1">
          <mxGeometry x="100" y="65" width="50" height="50" as="geometry" />
        </mxCell>
        <mxCell id="wSSXeLF1kZ9mJ8V0Gp6w-84" style="edgeStyle=orthogonalEdgeStyle;rounded=0;orthogonalLoop=1;jettySize=auto;html=1;exitX=1;exitY=0.25;exitDx=0;exitDy=0;endArrow=classicThin;endFill=1;fontStyle=0;fontFamily=Times New Roman;" edge="1" parent="1">
          <mxGeometry relative="1" as="geometry">
            <mxPoint x="321" y="74.00806451612902" as="targetPoint" />
            <mxPoint x="289" y="74.25" as="sourcePoint" />
          </mxGeometry>
        </mxCell>
        <mxCell id="wSSXeLF1kZ9mJ8V0Gp6w-85" style="edgeStyle=orthogonalEdgeStyle;rounded=0;orthogonalLoop=1;jettySize=auto;html=1;exitX=1;exitY=0.75;exitDx=0;exitDy=0;endArrow=classicThin;endFill=1;strokeColor=#FF0000;fontStyle=0;fontFamily=Times New Roman;dashed=1;" edge="1" parent="1">
          <mxGeometry relative="1" as="geometry">
            <mxPoint x="321" y="99.16935483870964" as="targetPoint" />
            <mxPoint x="289" y="99.25" as="sourcePoint" />
          </mxGeometry>
        </mxCell>
        <mxCell id="wSSXeLF1kZ9mJ8V0Gp6w-87" value="" style="shape=orEllipse;perimeter=ellipsePerimeter;whiteSpace=wrap;html=1;backgroundOutline=1;fontStyle=0;aspect=fixed;fillColor=#f5f5f5;fontColor=#333333;strokeColor=#666666;fontFamily=Times New Roman;" vertex="1" parent="1">
          <mxGeometry x="180" y="51" width="20" height="20" as="geometry" />
        </mxCell>
        <mxCell id="wSSXeLF1kZ9mJ8V0Gp6w-88" style="rounded=0;orthogonalLoop=1;jettySize=auto;html=1;endArrow=blockThin;endFill=1;strokeColor=#666666;entryX=0;entryY=0.5;entryDx=0;entryDy=0;exitX=1;exitY=1;exitDx=0;exitDy=0;dashed=1;dashPattern=1 2;fontFamily=Times New Roman;" edge="1" parent="1" source="wSSXeLF1kZ9mJ8V0Gp6w-87" target="wSSXeLF1kZ9mJ8V0Gp6w-7">
          <mxGeometry relative="1" as="geometry">
            <mxPoint x="250" y="370" as="sourcePoint" />
            <mxPoint x="280" y="400" as="targetPoint" />
          </mxGeometry>
        </mxCell>
        <mxCell id="wSSXeLF1kZ9mJ8V0Gp6w-89" value="noise" style="text;html=1;align=center;verticalAlign=middle;resizable=0;points=[];autosize=1;strokeColor=none;fillColor=none;fontFamily=Times New Roman;fontColor=#666666;" vertex="1" parent="1">
          <mxGeometry x="159" y="28.75" width="50" height="30" as="geometry" />
        </mxCell>
        <mxCell id="wSSXeLF1kZ9mJ8V0Gp6w-148" value="" style="group;aspect=fixed;fontFamily=Times New Roman;" vertex="1" connectable="0" parent="1">
          <mxGeometry x="232" y="152" width="75" height="75" as="geometry" />
        </mxCell>
        <mxCell id="wSSXeLF1kZ9mJ8V0Gp6w-97" value="" style="ellipse;whiteSpace=wrap;html=1;aspect=fixed;fontFamily=Times New Roman;" vertex="1" parent="wSSXeLF1kZ9mJ8V0Gp6w-148">
          <mxGeometry x="32.142857142857146" y="21.428571428571427" width="10.714285714285714" height="10.714285714285714" as="geometry" />
        </mxCell>
        <mxCell id="wSSXeLF1kZ9mJ8V0Gp6w-98" value="" style="ellipse;whiteSpace=wrap;html=1;aspect=fixed;fontFamily=Times New Roman;" vertex="1" parent="wSSXeLF1kZ9mJ8V0Gp6w-148">
          <mxGeometry x="32.142857142857146" width="10.714285714285714" height="10.714285714285714" as="geometry" />
        </mxCell>
        <mxCell id="wSSXeLF1kZ9mJ8V0Gp6w-99" value="" style="ellipse;whiteSpace=wrap;html=1;aspect=fixed;fontFamily=Times New Roman;" vertex="1" parent="wSSXeLF1kZ9mJ8V0Gp6w-148">
          <mxGeometry x="32.142857142857146" y="42.857142857142854" width="10.714285714285714" height="10.714285714285714" as="geometry" />
        </mxCell>
        <mxCell id="wSSXeLF1kZ9mJ8V0Gp6w-100" value="" style="ellipse;whiteSpace=wrap;html=1;aspect=fixed;fontFamily=Times New Roman;" vertex="1" parent="wSSXeLF1kZ9mJ8V0Gp6w-148">
          <mxGeometry x="32.142857142857146" y="64.28571428571429" width="10.714285714285714" height="10.714285714285714" as="geometry" />
        </mxCell>
        <mxCell id="wSSXeLF1kZ9mJ8V0Gp6w-101" value="" style="ellipse;whiteSpace=wrap;html=1;aspect=fixed;fontFamily=Times New Roman;" vertex="1" parent="wSSXeLF1kZ9mJ8V0Gp6w-148">
          <mxGeometry x="64.28571428571429" y="21.428571428571427" width="10.714285714285714" height="10.714285714285714" as="geometry" />
        </mxCell>
        <mxCell id="wSSXeLF1kZ9mJ8V0Gp6w-102" value="" style="ellipse;whiteSpace=wrap;html=1;aspect=fixed;fontFamily=Times New Roman;" vertex="1" parent="wSSXeLF1kZ9mJ8V0Gp6w-148">
          <mxGeometry x="64.28571428571429" y="42.857142857142854" width="10.714285714285714" height="10.714285714285714" as="geometry" />
        </mxCell>
        <mxCell id="wSSXeLF1kZ9mJ8V0Gp6w-122" style="rounded=0;orthogonalLoop=1;jettySize=auto;html=1;exitX=1;exitY=0.5;exitDx=0;exitDy=0;entryX=0;entryY=0.5;entryDx=0;entryDy=0;endArrow=none;endFill=0;endSize=6;strokeWidth=0.8;fontFamily=Times New Roman;" edge="1" source="wSSXeLF1kZ9mJ8V0Gp6w-98" target="wSSXeLF1kZ9mJ8V0Gp6w-101" parent="wSSXeLF1kZ9mJ8V0Gp6w-148">
          <mxGeometry relative="1" as="geometry">
            <mxPoint x="21.428571428571427" y="5.357142857142857" as="sourcePoint" />
            <mxPoint x="42.857142857142854" y="16.071428571428573" as="targetPoint" />
          </mxGeometry>
        </mxCell>
        <mxCell id="wSSXeLF1kZ9mJ8V0Gp6w-123" style="rounded=0;orthogonalLoop=1;jettySize=auto;html=1;exitX=1;exitY=0.5;exitDx=0;exitDy=0;entryX=0;entryY=0.5;entryDx=0;entryDy=0;endArrow=none;endFill=0;endSize=6;strokeWidth=0.8;fontFamily=Times New Roman;" edge="1" source="wSSXeLF1kZ9mJ8V0Gp6w-98" target="wSSXeLF1kZ9mJ8V0Gp6w-102" parent="wSSXeLF1kZ9mJ8V0Gp6w-148">
          <mxGeometry relative="1" as="geometry">
            <mxPoint x="53.57142857142857" y="16.071428571428573" as="sourcePoint" />
            <mxPoint x="75" y="37.5" as="targetPoint" />
          </mxGeometry>
        </mxCell>
        <mxCell id="wSSXeLF1kZ9mJ8V0Gp6w-124" style="rounded=0;orthogonalLoop=1;jettySize=auto;html=1;exitX=1;exitY=0.5;exitDx=0;exitDy=0;entryX=0;entryY=0.5;entryDx=0;entryDy=0;endArrow=none;endFill=0;endSize=6;strokeWidth=0.8;fontFamily=Times New Roman;" edge="1" source="wSSXeLF1kZ9mJ8V0Gp6w-97" target="wSSXeLF1kZ9mJ8V0Gp6w-101" parent="wSSXeLF1kZ9mJ8V0Gp6w-148">
          <mxGeometry relative="1" as="geometry">
            <mxPoint x="64.28571428571429" y="26.785714285714285" as="sourcePoint" />
            <mxPoint x="85.71428571428571" y="48.21428571428572" as="targetPoint" />
          </mxGeometry>
        </mxCell>
        <mxCell id="wSSXeLF1kZ9mJ8V0Gp6w-125" style="rounded=0;orthogonalLoop=1;jettySize=auto;html=1;exitX=1;exitY=0.5;exitDx=0;exitDy=0;entryX=0;entryY=0.5;entryDx=0;entryDy=0;endArrow=none;endFill=0;endSize=6;strokeWidth=0.8;fontFamily=Times New Roman;" edge="1" source="wSSXeLF1kZ9mJ8V0Gp6w-97" target="wSSXeLF1kZ9mJ8V0Gp6w-102" parent="wSSXeLF1kZ9mJ8V0Gp6w-148">
          <mxGeometry relative="1" as="geometry">
            <mxPoint x="75" y="37.5" as="sourcePoint" />
            <mxPoint x="96.42857142857144" y="58.92857142857142" as="targetPoint" />
          </mxGeometry>
        </mxCell>
        <mxCell id="wSSXeLF1kZ9mJ8V0Gp6w-126" style="rounded=0;orthogonalLoop=1;jettySize=auto;html=1;exitX=1;exitY=0.5;exitDx=0;exitDy=0;entryX=0;entryY=0.5;entryDx=0;entryDy=0;endArrow=none;endFill=0;endSize=6;strokeWidth=0.8;fontFamily=Times New Roman;" edge="1" source="wSSXeLF1kZ9mJ8V0Gp6w-99" target="wSSXeLF1kZ9mJ8V0Gp6w-101" parent="wSSXeLF1kZ9mJ8V0Gp6w-148">
          <mxGeometry relative="1" as="geometry">
            <mxPoint x="85.71428571428571" y="48.21428571428572" as="sourcePoint" />
            <mxPoint x="107.14285714285714" y="69.64285714285714" as="targetPoint" />
          </mxGeometry>
        </mxCell>
        <mxCell id="wSSXeLF1kZ9mJ8V0Gp6w-127" style="rounded=0;orthogonalLoop=1;jettySize=auto;html=1;exitX=1;exitY=0.5;exitDx=0;exitDy=0;entryX=0;entryY=0.5;entryDx=0;entryDy=0;endArrow=none;endFill=0;endSize=6;strokeWidth=0.8;fontFamily=Times New Roman;" edge="1" source="wSSXeLF1kZ9mJ8V0Gp6w-99" target="wSSXeLF1kZ9mJ8V0Gp6w-102" parent="wSSXeLF1kZ9mJ8V0Gp6w-148">
          <mxGeometry relative="1" as="geometry">
            <mxPoint x="96.42857142857144" y="58.92857142857142" as="sourcePoint" />
            <mxPoint x="117.85714285714285" y="80.35714285714286" as="targetPoint" />
          </mxGeometry>
        </mxCell>
        <mxCell id="wSSXeLF1kZ9mJ8V0Gp6w-128" style="rounded=0;orthogonalLoop=1;jettySize=auto;html=1;exitX=1;exitY=0.5;exitDx=0;exitDy=0;entryX=0;entryY=0.5;entryDx=0;entryDy=0;endArrow=none;endFill=0;endSize=6;strokeWidth=0.8;fontFamily=Times New Roman;" edge="1" source="wSSXeLF1kZ9mJ8V0Gp6w-100" target="wSSXeLF1kZ9mJ8V0Gp6w-101" parent="wSSXeLF1kZ9mJ8V0Gp6w-148">
          <mxGeometry relative="1" as="geometry">
            <mxPoint x="107.14285714285714" y="69.64285714285714" as="sourcePoint" />
            <mxPoint x="128.57142857142858" y="91.07142857142858" as="targetPoint" />
          </mxGeometry>
        </mxCell>
        <mxCell id="wSSXeLF1kZ9mJ8V0Gp6w-129" style="rounded=0;orthogonalLoop=1;jettySize=auto;html=1;exitX=1;exitY=0.5;exitDx=0;exitDy=0;entryX=0;entryY=0.5;entryDx=0;entryDy=0;endArrow=none;endFill=0;endSize=6;strokeWidth=0.8;fontFamily=Times New Roman;" edge="1" source="wSSXeLF1kZ9mJ8V0Gp6w-100" target="wSSXeLF1kZ9mJ8V0Gp6w-102" parent="wSSXeLF1kZ9mJ8V0Gp6w-148">
          <mxGeometry relative="1" as="geometry">
            <mxPoint x="117.85714285714285" y="80.35714285714286" as="sourcePoint" />
            <mxPoint x="139.28571428571428" y="101.78571428571429" as="targetPoint" />
          </mxGeometry>
        </mxCell>
        <mxCell id="wSSXeLF1kZ9mJ8V0Gp6w-130" value="1" style="ellipse;whiteSpace=wrap;html=1;aspect=fixed;fontFamily=Times New Roman;fillColor=#dae8fc;strokeColor=#6c8ebf;" vertex="1" parent="wSSXeLF1kZ9mJ8V0Gp6w-148">
          <mxGeometry y="10.714285714285714" width="10.714285714285714" height="10.714285714285714" as="geometry" />
        </mxCell>
        <mxCell id="wSSXeLF1kZ9mJ8V0Gp6w-131" value="2" style="ellipse;whiteSpace=wrap;html=1;aspect=fixed;fontFamily=Times New Roman;fillColor=#d5e8d4;strokeColor=#82b366;" vertex="1" parent="wSSXeLF1kZ9mJ8V0Gp6w-148">
          <mxGeometry y="32.142857142857146" width="10.714285714285714" height="10.714285714285714" as="geometry" />
        </mxCell>
        <mxCell id="wSSXeLF1kZ9mJ8V0Gp6w-132" value="3" style="ellipse;whiteSpace=wrap;html=1;aspect=fixed;fontFamily=Times New Roman;fillColor=#ffe6cc;strokeColor=#d79b00;" vertex="1" parent="wSSXeLF1kZ9mJ8V0Gp6w-148">
          <mxGeometry y="53.57142857142857" width="10.714285714285714" height="10.714285714285714" as="geometry" />
        </mxCell>
        <mxCell id="wSSXeLF1kZ9mJ8V0Gp6w-134" style="rounded=0;orthogonalLoop=1;jettySize=auto;html=1;exitX=1;exitY=0.5;exitDx=0;exitDy=0;entryX=0;entryY=0.5;entryDx=0;entryDy=0;endArrow=none;endFill=0;endSize=6;strokeWidth=0.8;fontFamily=Times New Roman;" edge="1" parent="wSSXeLF1kZ9mJ8V0Gp6w-148" source="wSSXeLF1kZ9mJ8V0Gp6w-130" target="wSSXeLF1kZ9mJ8V0Gp6w-98">
          <mxGeometry relative="1" as="geometry">
            <mxPoint x="53.57142857142857" y="16.071428571428573" as="sourcePoint" />
            <mxPoint x="75" y="37.5" as="targetPoint" />
          </mxGeometry>
        </mxCell>
        <mxCell id="wSSXeLF1kZ9mJ8V0Gp6w-135" style="rounded=0;orthogonalLoop=1;jettySize=auto;html=1;exitX=1;exitY=0.5;exitDx=0;exitDy=0;entryX=0;entryY=0.5;entryDx=0;entryDy=0;endArrow=none;endFill=0;endSize=6;strokeWidth=0.8;fontFamily=Times New Roman;" edge="1" parent="wSSXeLF1kZ9mJ8V0Gp6w-148" source="wSSXeLF1kZ9mJ8V0Gp6w-130" target="wSSXeLF1kZ9mJ8V0Gp6w-97">
          <mxGeometry relative="1" as="geometry">
            <mxPoint x="21.428571428571427" y="26.785714285714285" as="sourcePoint" />
            <mxPoint x="42.857142857142854" y="16.071428571428573" as="targetPoint" />
          </mxGeometry>
        </mxCell>
        <mxCell id="wSSXeLF1kZ9mJ8V0Gp6w-136" style="rounded=0;orthogonalLoop=1;jettySize=auto;html=1;exitX=1;exitY=0.5;exitDx=0;exitDy=0;entryX=0;entryY=0.5;entryDx=0;entryDy=0;endArrow=none;endFill=0;endSize=6;strokeWidth=0.8;fontFamily=Times New Roman;" edge="1" parent="wSSXeLF1kZ9mJ8V0Gp6w-148" source="wSSXeLF1kZ9mJ8V0Gp6w-130" target="wSSXeLF1kZ9mJ8V0Gp6w-99">
          <mxGeometry relative="1" as="geometry">
            <mxPoint x="21.428571428571427" y="26.785714285714285" as="sourcePoint" />
            <mxPoint x="42.857142857142854" y="37.5" as="targetPoint" />
          </mxGeometry>
        </mxCell>
        <mxCell id="wSSXeLF1kZ9mJ8V0Gp6w-137" style="rounded=0;orthogonalLoop=1;jettySize=auto;html=1;exitX=1;exitY=0.5;exitDx=0;exitDy=0;entryX=0;entryY=0.5;entryDx=0;entryDy=0;endArrow=none;endFill=0;endSize=6;strokeWidth=0.8;fontFamily=Times New Roman;" edge="1" parent="wSSXeLF1kZ9mJ8V0Gp6w-148" source="wSSXeLF1kZ9mJ8V0Gp6w-130" target="wSSXeLF1kZ9mJ8V0Gp6w-100">
          <mxGeometry relative="1" as="geometry">
            <mxPoint x="32.142857142857146" y="37.5" as="sourcePoint" />
            <mxPoint x="53.57142857142857" y="48.21428571428572" as="targetPoint" />
          </mxGeometry>
        </mxCell>
        <mxCell id="wSSXeLF1kZ9mJ8V0Gp6w-138" style="rounded=0;orthogonalLoop=1;jettySize=auto;html=1;exitX=1;exitY=0.5;exitDx=0;exitDy=0;entryX=0;entryY=0.5;entryDx=0;entryDy=0;endArrow=none;endFill=0;endSize=6;strokeWidth=0.8;fontFamily=Times New Roman;" edge="1" parent="wSSXeLF1kZ9mJ8V0Gp6w-148" source="wSSXeLF1kZ9mJ8V0Gp6w-131" target="wSSXeLF1kZ9mJ8V0Gp6w-98">
          <mxGeometry relative="1" as="geometry">
            <mxPoint x="21.428571428571427" y="26.785714285714285" as="sourcePoint" />
            <mxPoint x="42.857142857142854" y="16.071428571428573" as="targetPoint" />
          </mxGeometry>
        </mxCell>
        <mxCell id="wSSXeLF1kZ9mJ8V0Gp6w-139" style="rounded=0;orthogonalLoop=1;jettySize=auto;html=1;exitX=1;exitY=0.5;exitDx=0;exitDy=0;entryX=0;entryY=0.5;entryDx=0;entryDy=0;endArrow=none;endFill=0;endSize=6;strokeWidth=0.8;fontFamily=Times New Roman;" edge="1" parent="wSSXeLF1kZ9mJ8V0Gp6w-148" source="wSSXeLF1kZ9mJ8V0Gp6w-131" target="wSSXeLF1kZ9mJ8V0Gp6w-97">
          <mxGeometry relative="1" as="geometry">
            <mxPoint x="21.428571428571427" y="48.21428571428572" as="sourcePoint" />
            <mxPoint x="42.857142857142854" y="16.071428571428573" as="targetPoint" />
          </mxGeometry>
        </mxCell>
        <mxCell id="wSSXeLF1kZ9mJ8V0Gp6w-140" style="rounded=0;orthogonalLoop=1;jettySize=auto;html=1;exitX=1;exitY=0.5;exitDx=0;exitDy=0;entryX=0;entryY=0.5;entryDx=0;entryDy=0;endArrow=none;endFill=0;endSize=6;strokeWidth=0.8;fontFamily=Times New Roman;" edge="1" parent="wSSXeLF1kZ9mJ8V0Gp6w-148" source="wSSXeLF1kZ9mJ8V0Gp6w-131" target="wSSXeLF1kZ9mJ8V0Gp6w-99">
          <mxGeometry relative="1" as="geometry">
            <mxPoint x="21.428571428571427" y="48.21428571428572" as="sourcePoint" />
            <mxPoint x="42.857142857142854" y="37.5" as="targetPoint" />
          </mxGeometry>
        </mxCell>
        <mxCell id="wSSXeLF1kZ9mJ8V0Gp6w-141" style="rounded=0;orthogonalLoop=1;jettySize=auto;html=1;exitX=1;exitY=0.5;exitDx=0;exitDy=0;entryX=0;entryY=0.5;entryDx=0;entryDy=0;endArrow=none;endFill=0;endSize=6;strokeWidth=0.8;fontFamily=Times New Roman;" edge="1" parent="wSSXeLF1kZ9mJ8V0Gp6w-148" source="wSSXeLF1kZ9mJ8V0Gp6w-131" target="wSSXeLF1kZ9mJ8V0Gp6w-100">
          <mxGeometry relative="1" as="geometry">
            <mxPoint x="21.428571428571427" y="48.21428571428572" as="sourcePoint" />
            <mxPoint x="42.857142857142854" y="58.92857142857142" as="targetPoint" />
          </mxGeometry>
        </mxCell>
        <mxCell id="wSSXeLF1kZ9mJ8V0Gp6w-142" style="rounded=0;orthogonalLoop=1;jettySize=auto;html=1;exitX=1;exitY=0.5;exitDx=0;exitDy=0;entryX=0;entryY=0.5;entryDx=0;entryDy=0;endArrow=none;endFill=0;endSize=6;strokeWidth=0.8;fontFamily=Times New Roman;" edge="1" parent="wSSXeLF1kZ9mJ8V0Gp6w-148" source="wSSXeLF1kZ9mJ8V0Gp6w-132" target="wSSXeLF1kZ9mJ8V0Gp6w-98">
          <mxGeometry relative="1" as="geometry">
            <mxPoint x="21.428571428571427" y="48.21428571428572" as="sourcePoint" />
            <mxPoint x="42.857142857142854" y="80.35714285714286" as="targetPoint" />
          </mxGeometry>
        </mxCell>
        <mxCell id="wSSXeLF1kZ9mJ8V0Gp6w-143" style="rounded=0;orthogonalLoop=1;jettySize=auto;html=1;exitX=1;exitY=0.5;exitDx=0;exitDy=0;entryX=0;entryY=0.5;entryDx=0;entryDy=0;endArrow=none;endFill=0;endSize=6;strokeWidth=0.8;fontFamily=Times New Roman;" edge="1" parent="wSSXeLF1kZ9mJ8V0Gp6w-148" source="wSSXeLF1kZ9mJ8V0Gp6w-132" target="wSSXeLF1kZ9mJ8V0Gp6w-97">
          <mxGeometry relative="1" as="geometry">
            <mxPoint x="21.428571428571427" y="69.64285714285714" as="sourcePoint" />
            <mxPoint x="42.857142857142854" y="16.071428571428573" as="targetPoint" />
          </mxGeometry>
        </mxCell>
        <mxCell id="wSSXeLF1kZ9mJ8V0Gp6w-144" style="rounded=0;orthogonalLoop=1;jettySize=auto;html=1;exitX=1;exitY=0.5;exitDx=0;exitDy=0;entryX=0;entryY=0.5;entryDx=0;entryDy=0;endArrow=none;endFill=0;endSize=6;strokeWidth=0.8;fontFamily=Times New Roman;" edge="1" parent="wSSXeLF1kZ9mJ8V0Gp6w-148" source="wSSXeLF1kZ9mJ8V0Gp6w-132" target="wSSXeLF1kZ9mJ8V0Gp6w-99">
          <mxGeometry relative="1" as="geometry">
            <mxPoint x="21.428571428571427" y="69.64285714285714" as="sourcePoint" />
            <mxPoint x="42.857142857142854" y="37.5" as="targetPoint" />
          </mxGeometry>
        </mxCell>
        <mxCell id="wSSXeLF1kZ9mJ8V0Gp6w-145" style="rounded=0;orthogonalLoop=1;jettySize=auto;html=1;exitX=1;exitY=0.5;exitDx=0;exitDy=0;entryX=0;entryY=0.5;entryDx=0;entryDy=0;endArrow=none;endFill=0;endSize=6;strokeWidth=0.8;fontFamily=Times New Roman;" edge="1" parent="wSSXeLF1kZ9mJ8V0Gp6w-148" source="wSSXeLF1kZ9mJ8V0Gp6w-132" target="wSSXeLF1kZ9mJ8V0Gp6w-100">
          <mxGeometry relative="1" as="geometry">
            <mxPoint x="21.428571428571427" y="69.64285714285714" as="sourcePoint" />
            <mxPoint x="42.857142857142854" y="58.92857142857142" as="targetPoint" />
          </mxGeometry>
        </mxCell>
        <mxCell id="wSSXeLF1kZ9mJ8V0Gp6w-301" value="" style="group" vertex="1" connectable="0" parent="1">
          <mxGeometry x="311" y="152" width="75" height="75" as="geometry" />
        </mxCell>
        <mxCell id="wSSXeLF1kZ9mJ8V0Gp6w-212" value="" style="ellipse;whiteSpace=wrap;html=1;aspect=fixed;fontFamily=Times New Roman;" vertex="1" parent="wSSXeLF1kZ9mJ8V0Gp6w-301">
          <mxGeometry x="32.14285714285717" y="21.428571428571416" width="10.714285714285714" height="10.714285714285714" as="geometry" />
        </mxCell>
        <mxCell id="wSSXeLF1kZ9mJ8V0Gp6w-213" value="" style="ellipse;whiteSpace=wrap;html=1;aspect=fixed;fontFamily=Times New Roman;" vertex="1" parent="wSSXeLF1kZ9mJ8V0Gp6w-301">
          <mxGeometry x="32.14285714285717" width="10.714285714285714" height="10.714285714285714" as="geometry" />
        </mxCell>
        <mxCell id="wSSXeLF1kZ9mJ8V0Gp6w-214" value="" style="ellipse;whiteSpace=wrap;html=1;aspect=fixed;fontFamily=Times New Roman;" vertex="1" parent="wSSXeLF1kZ9mJ8V0Gp6w-301">
          <mxGeometry x="32.14285714285717" y="42.85714285714286" width="10.714285714285714" height="10.714285714285714" as="geometry" />
        </mxCell>
        <mxCell id="wSSXeLF1kZ9mJ8V0Gp6w-215" value="" style="ellipse;whiteSpace=wrap;html=1;aspect=fixed;fontFamily=Times New Roman;" vertex="1" parent="wSSXeLF1kZ9mJ8V0Gp6w-301">
          <mxGeometry x="32.14285714285717" y="64.28571428571428" width="10.714285714285714" height="10.714285714285714" as="geometry" />
        </mxCell>
        <mxCell id="wSSXeLF1kZ9mJ8V0Gp6w-216" value="" style="ellipse;whiteSpace=wrap;html=1;aspect=fixed;fontFamily=Times New Roman;" vertex="1" parent="wSSXeLF1kZ9mJ8V0Gp6w-301">
          <mxGeometry x="64.28571428571428" y="21.428571428571416" width="10.714285714285714" height="10.714285714285714" as="geometry" />
        </mxCell>
        <mxCell id="wSSXeLF1kZ9mJ8V0Gp6w-217" value="" style="ellipse;whiteSpace=wrap;html=1;aspect=fixed;fontFamily=Times New Roman;" vertex="1" parent="wSSXeLF1kZ9mJ8V0Gp6w-301">
          <mxGeometry x="64.28571428571428" y="42.85714285714286" width="10.714285714285714" height="10.714285714285714" as="geometry" />
        </mxCell>
        <mxCell id="wSSXeLF1kZ9mJ8V0Gp6w-218" style="rounded=0;orthogonalLoop=1;jettySize=auto;html=1;exitX=1;exitY=0.5;exitDx=0;exitDy=0;entryX=0;entryY=0.5;entryDx=0;entryDy=0;endArrow=none;endFill=0;endSize=6;strokeWidth=0.8;fontFamily=Times New Roman;" edge="1" parent="wSSXeLF1kZ9mJ8V0Gp6w-301" source="wSSXeLF1kZ9mJ8V0Gp6w-213" target="wSSXeLF1kZ9mJ8V0Gp6w-216">
          <mxGeometry relative="1" as="geometry">
            <mxPoint x="21.428571428571445" y="5.357142857142861" as="sourcePoint" />
            <mxPoint x="42.85714285714283" y="16.071428571428584" as="targetPoint" />
          </mxGeometry>
        </mxCell>
        <mxCell id="wSSXeLF1kZ9mJ8V0Gp6w-219" style="rounded=0;orthogonalLoop=1;jettySize=auto;html=1;exitX=1;exitY=0.5;exitDx=0;exitDy=0;entryX=0;entryY=0.5;entryDx=0;entryDy=0;endArrow=none;endFill=0;endSize=6;strokeWidth=0.8;fontFamily=Times New Roman;" edge="1" parent="wSSXeLF1kZ9mJ8V0Gp6w-301" source="wSSXeLF1kZ9mJ8V0Gp6w-213" target="wSSXeLF1kZ9mJ8V0Gp6w-217">
          <mxGeometry relative="1" as="geometry">
            <mxPoint x="53.571428571428555" y="16.071428571428584" as="sourcePoint" />
            <mxPoint x="75" y="37.5" as="targetPoint" />
          </mxGeometry>
        </mxCell>
        <mxCell id="wSSXeLF1kZ9mJ8V0Gp6w-220" style="rounded=0;orthogonalLoop=1;jettySize=auto;html=1;exitX=1;exitY=0.5;exitDx=0;exitDy=0;entryX=0;entryY=0.5;entryDx=0;entryDy=0;endArrow=none;endFill=0;endSize=6;strokeWidth=0.8;fontFamily=Times New Roman;" edge="1" parent="wSSXeLF1kZ9mJ8V0Gp6w-301" source="wSSXeLF1kZ9mJ8V0Gp6w-212" target="wSSXeLF1kZ9mJ8V0Gp6w-216">
          <mxGeometry relative="1" as="geometry">
            <mxPoint x="64.28571428571428" y="26.785714285714278" as="sourcePoint" />
            <mxPoint x="85.71428571428567" y="48.21428571428572" as="targetPoint" />
          </mxGeometry>
        </mxCell>
        <mxCell id="wSSXeLF1kZ9mJ8V0Gp6w-221" style="rounded=0;orthogonalLoop=1;jettySize=auto;html=1;exitX=1;exitY=0.5;exitDx=0;exitDy=0;entryX=0;entryY=0.5;entryDx=0;entryDy=0;endArrow=none;endFill=0;endSize=6;strokeWidth=0.8;fontFamily=Times New Roman;" edge="1" parent="wSSXeLF1kZ9mJ8V0Gp6w-301" source="wSSXeLF1kZ9mJ8V0Gp6w-212" target="wSSXeLF1kZ9mJ8V0Gp6w-217">
          <mxGeometry relative="1" as="geometry">
            <mxPoint x="75" y="37.5" as="sourcePoint" />
            <mxPoint x="96.42857142857144" y="58.928571428571416" as="targetPoint" />
          </mxGeometry>
        </mxCell>
        <mxCell id="wSSXeLF1kZ9mJ8V0Gp6w-222" style="rounded=0;orthogonalLoop=1;jettySize=auto;html=1;exitX=1;exitY=0.5;exitDx=0;exitDy=0;entryX=0;entryY=0.5;entryDx=0;entryDy=0;endArrow=none;endFill=0;endSize=6;strokeWidth=0.8;fontFamily=Times New Roman;" edge="1" parent="wSSXeLF1kZ9mJ8V0Gp6w-301" source="wSSXeLF1kZ9mJ8V0Gp6w-214" target="wSSXeLF1kZ9mJ8V0Gp6w-216">
          <mxGeometry relative="1" as="geometry">
            <mxPoint x="85.71428571428567" y="48.21428571428572" as="sourcePoint" />
            <mxPoint x="107.14285714285711" y="69.64285714285714" as="targetPoint" />
          </mxGeometry>
        </mxCell>
        <mxCell id="wSSXeLF1kZ9mJ8V0Gp6w-223" style="rounded=0;orthogonalLoop=1;jettySize=auto;html=1;exitX=1;exitY=0.5;exitDx=0;exitDy=0;entryX=0;entryY=0.5;entryDx=0;entryDy=0;endArrow=none;endFill=0;endSize=6;strokeWidth=0.8;fontFamily=Times New Roman;" edge="1" parent="wSSXeLF1kZ9mJ8V0Gp6w-301" source="wSSXeLF1kZ9mJ8V0Gp6w-214" target="wSSXeLF1kZ9mJ8V0Gp6w-217">
          <mxGeometry relative="1" as="geometry">
            <mxPoint x="96.42857142857144" y="58.928571428571416" as="sourcePoint" />
            <mxPoint x="117.85714285714289" y="80.35714285714286" as="targetPoint" />
          </mxGeometry>
        </mxCell>
        <mxCell id="wSSXeLF1kZ9mJ8V0Gp6w-224" style="rounded=0;orthogonalLoop=1;jettySize=auto;html=1;exitX=1;exitY=0.5;exitDx=0;exitDy=0;entryX=0;entryY=0.5;entryDx=0;entryDy=0;endArrow=none;endFill=0;endSize=6;strokeWidth=0.8;fontFamily=Times New Roman;" edge="1" parent="wSSXeLF1kZ9mJ8V0Gp6w-301" source="wSSXeLF1kZ9mJ8V0Gp6w-215" target="wSSXeLF1kZ9mJ8V0Gp6w-216">
          <mxGeometry relative="1" as="geometry">
            <mxPoint x="107.14285714285711" y="69.64285714285714" as="sourcePoint" />
            <mxPoint x="128.57142857142856" y="91.07142857142858" as="targetPoint" />
          </mxGeometry>
        </mxCell>
        <mxCell id="wSSXeLF1kZ9mJ8V0Gp6w-225" style="rounded=0;orthogonalLoop=1;jettySize=auto;html=1;exitX=1;exitY=0.5;exitDx=0;exitDy=0;entryX=0;entryY=0.5;entryDx=0;entryDy=0;endArrow=none;endFill=0;endSize=6;strokeWidth=0.8;fontFamily=Times New Roman;" edge="1" parent="wSSXeLF1kZ9mJ8V0Gp6w-301" source="wSSXeLF1kZ9mJ8V0Gp6w-215" target="wSSXeLF1kZ9mJ8V0Gp6w-217">
          <mxGeometry relative="1" as="geometry">
            <mxPoint x="117.85714285714289" y="80.35714285714286" as="sourcePoint" />
            <mxPoint x="139.28571428571422" y="101.78571428571428" as="targetPoint" />
          </mxGeometry>
        </mxCell>
        <mxCell id="wSSXeLF1kZ9mJ8V0Gp6w-226" value="4" style="ellipse;whiteSpace=wrap;html=1;aspect=fixed;fontFamily=Times New Roman;fillColor=#fff2cc;strokeColor=#d6b656;" vertex="1" parent="wSSXeLF1kZ9mJ8V0Gp6w-301">
          <mxGeometry y="10.714285714285722" width="10.714285714285714" height="10.714285714285714" as="geometry" />
        </mxCell>
        <mxCell id="wSSXeLF1kZ9mJ8V0Gp6w-227" value="5" style="ellipse;whiteSpace=wrap;html=1;aspect=fixed;fontFamily=Times New Roman;fillColor=#f8cecc;strokeColor=#b85450;" vertex="1" parent="wSSXeLF1kZ9mJ8V0Gp6w-301">
          <mxGeometry y="32.14285714285714" width="10.714285714285714" height="10.714285714285714" as="geometry" />
        </mxCell>
        <mxCell id="wSSXeLF1kZ9mJ8V0Gp6w-228" value="6" style="ellipse;whiteSpace=wrap;html=1;aspect=fixed;fontFamily=Times New Roman;fillColor=#e1d5e7;strokeColor=#9673a6;" vertex="1" parent="wSSXeLF1kZ9mJ8V0Gp6w-301">
          <mxGeometry y="53.571428571428555" width="10.714285714285714" height="10.714285714285714" as="geometry" />
        </mxCell>
        <mxCell id="wSSXeLF1kZ9mJ8V0Gp6w-229" style="rounded=0;orthogonalLoop=1;jettySize=auto;html=1;exitX=1;exitY=0.5;exitDx=0;exitDy=0;entryX=0;entryY=0.5;entryDx=0;entryDy=0;endArrow=none;endFill=0;endSize=6;strokeWidth=0.8;fontFamily=Times New Roman;" edge="1" parent="wSSXeLF1kZ9mJ8V0Gp6w-301" source="wSSXeLF1kZ9mJ8V0Gp6w-226" target="wSSXeLF1kZ9mJ8V0Gp6w-213">
          <mxGeometry relative="1" as="geometry">
            <mxPoint x="53.571428571428555" y="16.071428571428584" as="sourcePoint" />
            <mxPoint x="75" y="37.5" as="targetPoint" />
          </mxGeometry>
        </mxCell>
        <mxCell id="wSSXeLF1kZ9mJ8V0Gp6w-230" style="rounded=0;orthogonalLoop=1;jettySize=auto;html=1;exitX=1;exitY=0.5;exitDx=0;exitDy=0;entryX=0;entryY=0.5;entryDx=0;entryDy=0;endArrow=none;endFill=0;endSize=6;strokeWidth=0.8;fontFamily=Times New Roman;" edge="1" parent="wSSXeLF1kZ9mJ8V0Gp6w-301" source="wSSXeLF1kZ9mJ8V0Gp6w-226" target="wSSXeLF1kZ9mJ8V0Gp6w-212">
          <mxGeometry relative="1" as="geometry">
            <mxPoint x="21.428571428571445" y="26.785714285714278" as="sourcePoint" />
            <mxPoint x="42.85714285714283" y="16.071428571428584" as="targetPoint" />
          </mxGeometry>
        </mxCell>
        <mxCell id="wSSXeLF1kZ9mJ8V0Gp6w-231" style="rounded=0;orthogonalLoop=1;jettySize=auto;html=1;exitX=1;exitY=0.5;exitDx=0;exitDy=0;entryX=0;entryY=0.5;entryDx=0;entryDy=0;endArrow=none;endFill=0;endSize=6;strokeWidth=0.8;fontFamily=Times New Roman;" edge="1" parent="wSSXeLF1kZ9mJ8V0Gp6w-301" source="wSSXeLF1kZ9mJ8V0Gp6w-226" target="wSSXeLF1kZ9mJ8V0Gp6w-214">
          <mxGeometry relative="1" as="geometry">
            <mxPoint x="21.428571428571445" y="26.785714285714278" as="sourcePoint" />
            <mxPoint x="42.85714285714283" y="37.5" as="targetPoint" />
          </mxGeometry>
        </mxCell>
        <mxCell id="wSSXeLF1kZ9mJ8V0Gp6w-232" style="rounded=0;orthogonalLoop=1;jettySize=auto;html=1;exitX=1;exitY=0.5;exitDx=0;exitDy=0;entryX=0;entryY=0.5;entryDx=0;entryDy=0;endArrow=none;endFill=0;endSize=6;strokeWidth=0.8;fontFamily=Times New Roman;" edge="1" parent="wSSXeLF1kZ9mJ8V0Gp6w-301" source="wSSXeLF1kZ9mJ8V0Gp6w-226" target="wSSXeLF1kZ9mJ8V0Gp6w-215">
          <mxGeometry relative="1" as="geometry">
            <mxPoint x="32.14285714285717" y="37.5" as="sourcePoint" />
            <mxPoint x="53.571428571428555" y="48.21428571428572" as="targetPoint" />
          </mxGeometry>
        </mxCell>
        <mxCell id="wSSXeLF1kZ9mJ8V0Gp6w-233" style="rounded=0;orthogonalLoop=1;jettySize=auto;html=1;exitX=1;exitY=0.5;exitDx=0;exitDy=0;entryX=0;entryY=0.5;entryDx=0;entryDy=0;endArrow=none;endFill=0;endSize=6;strokeWidth=0.8;fontFamily=Times New Roman;" edge="1" parent="wSSXeLF1kZ9mJ8V0Gp6w-301" source="wSSXeLF1kZ9mJ8V0Gp6w-227" target="wSSXeLF1kZ9mJ8V0Gp6w-213">
          <mxGeometry relative="1" as="geometry">
            <mxPoint x="21.428571428571445" y="26.785714285714278" as="sourcePoint" />
            <mxPoint x="42.85714285714283" y="16.071428571428584" as="targetPoint" />
          </mxGeometry>
        </mxCell>
        <mxCell id="wSSXeLF1kZ9mJ8V0Gp6w-234" style="rounded=0;orthogonalLoop=1;jettySize=auto;html=1;exitX=1;exitY=0.5;exitDx=0;exitDy=0;entryX=0;entryY=0.5;entryDx=0;entryDy=0;endArrow=none;endFill=0;endSize=6;strokeWidth=0.8;fontFamily=Times New Roman;" edge="1" parent="wSSXeLF1kZ9mJ8V0Gp6w-301" source="wSSXeLF1kZ9mJ8V0Gp6w-227" target="wSSXeLF1kZ9mJ8V0Gp6w-212">
          <mxGeometry relative="1" as="geometry">
            <mxPoint x="21.428571428571445" y="48.21428571428572" as="sourcePoint" />
            <mxPoint x="42.85714285714283" y="16.071428571428584" as="targetPoint" />
          </mxGeometry>
        </mxCell>
        <mxCell id="wSSXeLF1kZ9mJ8V0Gp6w-235" style="rounded=0;orthogonalLoop=1;jettySize=auto;html=1;exitX=1;exitY=0.5;exitDx=0;exitDy=0;entryX=0;entryY=0.5;entryDx=0;entryDy=0;endArrow=none;endFill=0;endSize=6;strokeWidth=0.8;fontFamily=Times New Roman;" edge="1" parent="wSSXeLF1kZ9mJ8V0Gp6w-301" source="wSSXeLF1kZ9mJ8V0Gp6w-227" target="wSSXeLF1kZ9mJ8V0Gp6w-214">
          <mxGeometry relative="1" as="geometry">
            <mxPoint x="21.428571428571445" y="48.21428571428572" as="sourcePoint" />
            <mxPoint x="42.85714285714283" y="37.5" as="targetPoint" />
          </mxGeometry>
        </mxCell>
        <mxCell id="wSSXeLF1kZ9mJ8V0Gp6w-236" style="rounded=0;orthogonalLoop=1;jettySize=auto;html=1;exitX=1;exitY=0.5;exitDx=0;exitDy=0;entryX=0;entryY=0.5;entryDx=0;entryDy=0;endArrow=none;endFill=0;endSize=6;strokeWidth=0.8;fontFamily=Times New Roman;" edge="1" parent="wSSXeLF1kZ9mJ8V0Gp6w-301" source="wSSXeLF1kZ9mJ8V0Gp6w-227" target="wSSXeLF1kZ9mJ8V0Gp6w-215">
          <mxGeometry relative="1" as="geometry">
            <mxPoint x="21.428571428571445" y="48.21428571428572" as="sourcePoint" />
            <mxPoint x="42.85714285714283" y="58.928571428571416" as="targetPoint" />
          </mxGeometry>
        </mxCell>
        <mxCell id="wSSXeLF1kZ9mJ8V0Gp6w-237" style="rounded=0;orthogonalLoop=1;jettySize=auto;html=1;exitX=1;exitY=0.5;exitDx=0;exitDy=0;entryX=0;entryY=0.5;entryDx=0;entryDy=0;endArrow=none;endFill=0;endSize=6;strokeWidth=0.8;fontFamily=Times New Roman;" edge="1" parent="wSSXeLF1kZ9mJ8V0Gp6w-301" source="wSSXeLF1kZ9mJ8V0Gp6w-228" target="wSSXeLF1kZ9mJ8V0Gp6w-213">
          <mxGeometry relative="1" as="geometry">
            <mxPoint x="21.428571428571445" y="48.21428571428572" as="sourcePoint" />
            <mxPoint x="42.85714285714283" y="80.35714285714286" as="targetPoint" />
          </mxGeometry>
        </mxCell>
        <mxCell id="wSSXeLF1kZ9mJ8V0Gp6w-238" style="rounded=0;orthogonalLoop=1;jettySize=auto;html=1;exitX=1;exitY=0.5;exitDx=0;exitDy=0;entryX=0;entryY=0.5;entryDx=0;entryDy=0;endArrow=none;endFill=0;endSize=6;strokeWidth=0.8;fontFamily=Times New Roman;" edge="1" parent="wSSXeLF1kZ9mJ8V0Gp6w-301" source="wSSXeLF1kZ9mJ8V0Gp6w-228" target="wSSXeLF1kZ9mJ8V0Gp6w-212">
          <mxGeometry relative="1" as="geometry">
            <mxPoint x="21.428571428571445" y="69.64285714285714" as="sourcePoint" />
            <mxPoint x="42.85714285714283" y="16.071428571428584" as="targetPoint" />
          </mxGeometry>
        </mxCell>
        <mxCell id="wSSXeLF1kZ9mJ8V0Gp6w-239" style="rounded=0;orthogonalLoop=1;jettySize=auto;html=1;exitX=1;exitY=0.5;exitDx=0;exitDy=0;entryX=0;entryY=0.5;entryDx=0;entryDy=0;endArrow=none;endFill=0;endSize=6;strokeWidth=0.8;fontFamily=Times New Roman;" edge="1" parent="wSSXeLF1kZ9mJ8V0Gp6w-301" source="wSSXeLF1kZ9mJ8V0Gp6w-228" target="wSSXeLF1kZ9mJ8V0Gp6w-214">
          <mxGeometry relative="1" as="geometry">
            <mxPoint x="21.428571428571445" y="69.64285714285714" as="sourcePoint" />
            <mxPoint x="42.85714285714283" y="37.5" as="targetPoint" />
          </mxGeometry>
        </mxCell>
        <mxCell id="wSSXeLF1kZ9mJ8V0Gp6w-240" style="rounded=0;orthogonalLoop=1;jettySize=auto;html=1;exitX=1;exitY=0.5;exitDx=0;exitDy=0;entryX=0;entryY=0.5;entryDx=0;entryDy=0;endArrow=none;endFill=0;endSize=6;strokeWidth=0.8;fontFamily=Times New Roman;" edge="1" parent="wSSXeLF1kZ9mJ8V0Gp6w-301" source="wSSXeLF1kZ9mJ8V0Gp6w-228" target="wSSXeLF1kZ9mJ8V0Gp6w-215">
          <mxGeometry relative="1" as="geometry">
            <mxPoint x="21.428571428571445" y="69.64285714285714" as="sourcePoint" />
            <mxPoint x="42.85714285714283" y="58.928571428571416" as="targetPoint" />
          </mxGeometry>
        </mxCell>
        <mxCell id="wSSXeLF1kZ9mJ8V0Gp6w-302" value="" style="group;aspect=fixed;fontFamily=Times New Roman;" vertex="1" connectable="0" parent="1">
          <mxGeometry x="433" y="152" width="75" height="75" as="geometry" />
        </mxCell>
        <mxCell id="wSSXeLF1kZ9mJ8V0Gp6w-303" value="" style="ellipse;whiteSpace=wrap;html=1;aspect=fixed;fontFamily=Times New Roman;" vertex="1" parent="wSSXeLF1kZ9mJ8V0Gp6w-302">
          <mxGeometry x="32.142857142857146" y="21.428571428571427" width="10.714285714285714" height="10.714285714285714" as="geometry" />
        </mxCell>
        <mxCell id="wSSXeLF1kZ9mJ8V0Gp6w-304" value="" style="ellipse;whiteSpace=wrap;html=1;aspect=fixed;fontFamily=Times New Roman;" vertex="1" parent="wSSXeLF1kZ9mJ8V0Gp6w-302">
          <mxGeometry x="32.142857142857146" width="10.714285714285714" height="10.714285714285714" as="geometry" />
        </mxCell>
        <mxCell id="wSSXeLF1kZ9mJ8V0Gp6w-305" value="" style="ellipse;whiteSpace=wrap;html=1;aspect=fixed;fontFamily=Times New Roman;" vertex="1" parent="wSSXeLF1kZ9mJ8V0Gp6w-302">
          <mxGeometry x="32.142857142857146" y="42.857142857142854" width="10.714285714285714" height="10.714285714285714" as="geometry" />
        </mxCell>
        <mxCell id="wSSXeLF1kZ9mJ8V0Gp6w-306" value="" style="ellipse;whiteSpace=wrap;html=1;aspect=fixed;fontFamily=Times New Roman;" vertex="1" parent="wSSXeLF1kZ9mJ8V0Gp6w-302">
          <mxGeometry x="32.142857142857146" y="64.28571428571429" width="10.714285714285714" height="10.714285714285714" as="geometry" />
        </mxCell>
        <mxCell id="wSSXeLF1kZ9mJ8V0Gp6w-307" value="" style="ellipse;whiteSpace=wrap;html=1;aspect=fixed;fontFamily=Times New Roman;" vertex="1" parent="wSSXeLF1kZ9mJ8V0Gp6w-302">
          <mxGeometry x="64.28571428571429" y="21.428571428571427" width="10.714285714285714" height="10.714285714285714" as="geometry" />
        </mxCell>
        <mxCell id="wSSXeLF1kZ9mJ8V0Gp6w-308" value="" style="ellipse;whiteSpace=wrap;html=1;aspect=fixed;fontFamily=Times New Roman;" vertex="1" parent="wSSXeLF1kZ9mJ8V0Gp6w-302">
          <mxGeometry x="64.28571428571429" y="42.857142857142854" width="10.714285714285714" height="10.714285714285714" as="geometry" />
        </mxCell>
        <mxCell id="wSSXeLF1kZ9mJ8V0Gp6w-309" style="rounded=0;orthogonalLoop=1;jettySize=auto;html=1;exitX=1;exitY=0.5;exitDx=0;exitDy=0;entryX=0;entryY=0.5;entryDx=0;entryDy=0;endArrow=none;endFill=0;endSize=6;strokeWidth=0.8;fontFamily=Times New Roman;" edge="1" parent="wSSXeLF1kZ9mJ8V0Gp6w-302" source="wSSXeLF1kZ9mJ8V0Gp6w-304" target="wSSXeLF1kZ9mJ8V0Gp6w-307">
          <mxGeometry relative="1" as="geometry">
            <mxPoint x="21.428571428571427" y="5.357142857142857" as="sourcePoint" />
            <mxPoint x="42.857142857142854" y="16.071428571428573" as="targetPoint" />
          </mxGeometry>
        </mxCell>
        <mxCell id="wSSXeLF1kZ9mJ8V0Gp6w-310" style="rounded=0;orthogonalLoop=1;jettySize=auto;html=1;exitX=1;exitY=0.5;exitDx=0;exitDy=0;entryX=0;entryY=0.5;entryDx=0;entryDy=0;endArrow=none;endFill=0;endSize=6;strokeWidth=0.8;fontFamily=Times New Roman;" edge="1" parent="wSSXeLF1kZ9mJ8V0Gp6w-302" source="wSSXeLF1kZ9mJ8V0Gp6w-304" target="wSSXeLF1kZ9mJ8V0Gp6w-308">
          <mxGeometry relative="1" as="geometry">
            <mxPoint x="53.57142857142857" y="16.071428571428573" as="sourcePoint" />
            <mxPoint x="75" y="37.5" as="targetPoint" />
          </mxGeometry>
        </mxCell>
        <mxCell id="wSSXeLF1kZ9mJ8V0Gp6w-311" style="rounded=0;orthogonalLoop=1;jettySize=auto;html=1;exitX=1;exitY=0.5;exitDx=0;exitDy=0;entryX=0;entryY=0.5;entryDx=0;entryDy=0;endArrow=none;endFill=0;endSize=6;strokeWidth=0.8;fontFamily=Times New Roman;" edge="1" parent="wSSXeLF1kZ9mJ8V0Gp6w-302" source="wSSXeLF1kZ9mJ8V0Gp6w-303" target="wSSXeLF1kZ9mJ8V0Gp6w-307">
          <mxGeometry relative="1" as="geometry">
            <mxPoint x="64.28571428571429" y="26.785714285714285" as="sourcePoint" />
            <mxPoint x="85.71428571428571" y="48.21428571428572" as="targetPoint" />
          </mxGeometry>
        </mxCell>
        <mxCell id="wSSXeLF1kZ9mJ8V0Gp6w-312" style="rounded=0;orthogonalLoop=1;jettySize=auto;html=1;exitX=1;exitY=0.5;exitDx=0;exitDy=0;entryX=0;entryY=0.5;entryDx=0;entryDy=0;endArrow=none;endFill=0;endSize=6;strokeWidth=0.8;fontFamily=Times New Roman;" edge="1" parent="wSSXeLF1kZ9mJ8V0Gp6w-302" source="wSSXeLF1kZ9mJ8V0Gp6w-303" target="wSSXeLF1kZ9mJ8V0Gp6w-308">
          <mxGeometry relative="1" as="geometry">
            <mxPoint x="75" y="37.5" as="sourcePoint" />
            <mxPoint x="96.42857142857144" y="58.92857142857142" as="targetPoint" />
          </mxGeometry>
        </mxCell>
        <mxCell id="wSSXeLF1kZ9mJ8V0Gp6w-313" style="rounded=0;orthogonalLoop=1;jettySize=auto;html=1;exitX=1;exitY=0.5;exitDx=0;exitDy=0;entryX=0;entryY=0.5;entryDx=0;entryDy=0;endArrow=none;endFill=0;endSize=6;strokeWidth=0.8;fontFamily=Times New Roman;" edge="1" parent="wSSXeLF1kZ9mJ8V0Gp6w-302" source="wSSXeLF1kZ9mJ8V0Gp6w-305" target="wSSXeLF1kZ9mJ8V0Gp6w-307">
          <mxGeometry relative="1" as="geometry">
            <mxPoint x="85.71428571428571" y="48.21428571428572" as="sourcePoint" />
            <mxPoint x="107.14285714285714" y="69.64285714285714" as="targetPoint" />
          </mxGeometry>
        </mxCell>
        <mxCell id="wSSXeLF1kZ9mJ8V0Gp6w-314" style="rounded=0;orthogonalLoop=1;jettySize=auto;html=1;exitX=1;exitY=0.5;exitDx=0;exitDy=0;entryX=0;entryY=0.5;entryDx=0;entryDy=0;endArrow=none;endFill=0;endSize=6;strokeWidth=0.8;fontFamily=Times New Roman;" edge="1" parent="wSSXeLF1kZ9mJ8V0Gp6w-302" source="wSSXeLF1kZ9mJ8V0Gp6w-305" target="wSSXeLF1kZ9mJ8V0Gp6w-308">
          <mxGeometry relative="1" as="geometry">
            <mxPoint x="96.42857142857144" y="58.92857142857142" as="sourcePoint" />
            <mxPoint x="117.85714285714285" y="80.35714285714286" as="targetPoint" />
          </mxGeometry>
        </mxCell>
        <mxCell id="wSSXeLF1kZ9mJ8V0Gp6w-315" style="rounded=0;orthogonalLoop=1;jettySize=auto;html=1;exitX=1;exitY=0.5;exitDx=0;exitDy=0;entryX=0;entryY=0.5;entryDx=0;entryDy=0;endArrow=none;endFill=0;endSize=6;strokeWidth=0.8;fontFamily=Times New Roman;" edge="1" parent="wSSXeLF1kZ9mJ8V0Gp6w-302" source="wSSXeLF1kZ9mJ8V0Gp6w-306" target="wSSXeLF1kZ9mJ8V0Gp6w-307">
          <mxGeometry relative="1" as="geometry">
            <mxPoint x="107.14285714285714" y="69.64285714285714" as="sourcePoint" />
            <mxPoint x="128.57142857142858" y="91.07142857142858" as="targetPoint" />
          </mxGeometry>
        </mxCell>
        <mxCell id="wSSXeLF1kZ9mJ8V0Gp6w-316" style="rounded=0;orthogonalLoop=1;jettySize=auto;html=1;exitX=1;exitY=0.5;exitDx=0;exitDy=0;entryX=0;entryY=0.5;entryDx=0;entryDy=0;endArrow=none;endFill=0;endSize=6;strokeWidth=0.8;fontFamily=Times New Roman;" edge="1" parent="wSSXeLF1kZ9mJ8V0Gp6w-302" source="wSSXeLF1kZ9mJ8V0Gp6w-306" target="wSSXeLF1kZ9mJ8V0Gp6w-308">
          <mxGeometry relative="1" as="geometry">
            <mxPoint x="117.85714285714285" y="80.35714285714286" as="sourcePoint" />
            <mxPoint x="139.28571428571428" y="101.78571428571429" as="targetPoint" />
          </mxGeometry>
        </mxCell>
        <mxCell id="wSSXeLF1kZ9mJ8V0Gp6w-317" value="1" style="ellipse;whiteSpace=wrap;html=1;aspect=fixed;fontFamily=Times New Roman;fillColor=#dae8fc;strokeColor=#6c8ebf;" vertex="1" parent="wSSXeLF1kZ9mJ8V0Gp6w-302">
          <mxGeometry y="10.714285714285714" width="10.714285714285714" height="10.714285714285714" as="geometry" />
        </mxCell>
        <mxCell id="wSSXeLF1kZ9mJ8V0Gp6w-318" value="3" style="ellipse;whiteSpace=wrap;html=1;aspect=fixed;fontFamily=Times New Roman;fillColor=#ffe6cc;strokeColor=#d79b00;" vertex="1" parent="wSSXeLF1kZ9mJ8V0Gp6w-302">
          <mxGeometry y="32.142857142857146" width="10.714285714285714" height="10.714285714285714" as="geometry" />
        </mxCell>
        <mxCell id="wSSXeLF1kZ9mJ8V0Gp6w-319" value="5" style="ellipse;whiteSpace=wrap;html=1;aspect=fixed;fontFamily=Times New Roman;fillColor=#f8cecc;strokeColor=#b85450;" vertex="1" parent="wSSXeLF1kZ9mJ8V0Gp6w-302">
          <mxGeometry y="53.57142857142857" width="10.714285714285714" height="10.714285714285714" as="geometry" />
        </mxCell>
        <mxCell id="wSSXeLF1kZ9mJ8V0Gp6w-320" style="rounded=0;orthogonalLoop=1;jettySize=auto;html=1;exitX=1;exitY=0.5;exitDx=0;exitDy=0;entryX=0;entryY=0.5;entryDx=0;entryDy=0;endArrow=none;endFill=0;endSize=6;strokeWidth=0.8;fontFamily=Times New Roman;" edge="1" parent="wSSXeLF1kZ9mJ8V0Gp6w-302" source="wSSXeLF1kZ9mJ8V0Gp6w-317" target="wSSXeLF1kZ9mJ8V0Gp6w-304">
          <mxGeometry relative="1" as="geometry">
            <mxPoint x="53.57142857142857" y="16.071428571428573" as="sourcePoint" />
            <mxPoint x="75" y="37.5" as="targetPoint" />
          </mxGeometry>
        </mxCell>
        <mxCell id="wSSXeLF1kZ9mJ8V0Gp6w-321" style="rounded=0;orthogonalLoop=1;jettySize=auto;html=1;exitX=1;exitY=0.5;exitDx=0;exitDy=0;entryX=0;entryY=0.5;entryDx=0;entryDy=0;endArrow=none;endFill=0;endSize=6;strokeWidth=0.8;fontFamily=Times New Roman;" edge="1" parent="wSSXeLF1kZ9mJ8V0Gp6w-302" source="wSSXeLF1kZ9mJ8V0Gp6w-317" target="wSSXeLF1kZ9mJ8V0Gp6w-303">
          <mxGeometry relative="1" as="geometry">
            <mxPoint x="21.428571428571427" y="26.785714285714285" as="sourcePoint" />
            <mxPoint x="42.857142857142854" y="16.071428571428573" as="targetPoint" />
          </mxGeometry>
        </mxCell>
        <mxCell id="wSSXeLF1kZ9mJ8V0Gp6w-322" style="rounded=0;orthogonalLoop=1;jettySize=auto;html=1;exitX=1;exitY=0.5;exitDx=0;exitDy=0;entryX=0;entryY=0.5;entryDx=0;entryDy=0;endArrow=none;endFill=0;endSize=6;strokeWidth=0.8;fontFamily=Times New Roman;" edge="1" parent="wSSXeLF1kZ9mJ8V0Gp6w-302" source="wSSXeLF1kZ9mJ8V0Gp6w-317" target="wSSXeLF1kZ9mJ8V0Gp6w-305">
          <mxGeometry relative="1" as="geometry">
            <mxPoint x="21.428571428571427" y="26.785714285714285" as="sourcePoint" />
            <mxPoint x="42.857142857142854" y="37.5" as="targetPoint" />
          </mxGeometry>
        </mxCell>
        <mxCell id="wSSXeLF1kZ9mJ8V0Gp6w-323" style="rounded=0;orthogonalLoop=1;jettySize=auto;html=1;exitX=1;exitY=0.5;exitDx=0;exitDy=0;entryX=0;entryY=0.5;entryDx=0;entryDy=0;endArrow=none;endFill=0;endSize=6;strokeWidth=0.8;fontFamily=Times New Roman;" edge="1" parent="wSSXeLF1kZ9mJ8V0Gp6w-302" source="wSSXeLF1kZ9mJ8V0Gp6w-317" target="wSSXeLF1kZ9mJ8V0Gp6w-306">
          <mxGeometry relative="1" as="geometry">
            <mxPoint x="32.142857142857146" y="37.5" as="sourcePoint" />
            <mxPoint x="53.57142857142857" y="48.21428571428572" as="targetPoint" />
          </mxGeometry>
        </mxCell>
        <mxCell id="wSSXeLF1kZ9mJ8V0Gp6w-324" style="rounded=0;orthogonalLoop=1;jettySize=auto;html=1;exitX=1;exitY=0.5;exitDx=0;exitDy=0;entryX=0;entryY=0.5;entryDx=0;entryDy=0;endArrow=none;endFill=0;endSize=6;strokeWidth=0.8;fontFamily=Times New Roman;" edge="1" parent="wSSXeLF1kZ9mJ8V0Gp6w-302" source="wSSXeLF1kZ9mJ8V0Gp6w-318" target="wSSXeLF1kZ9mJ8V0Gp6w-304">
          <mxGeometry relative="1" as="geometry">
            <mxPoint x="21.428571428571427" y="26.785714285714285" as="sourcePoint" />
            <mxPoint x="42.857142857142854" y="16.071428571428573" as="targetPoint" />
          </mxGeometry>
        </mxCell>
        <mxCell id="wSSXeLF1kZ9mJ8V0Gp6w-325" style="rounded=0;orthogonalLoop=1;jettySize=auto;html=1;exitX=1;exitY=0.5;exitDx=0;exitDy=0;entryX=0;entryY=0.5;entryDx=0;entryDy=0;endArrow=none;endFill=0;endSize=6;strokeWidth=0.8;fontFamily=Times New Roman;" edge="1" parent="wSSXeLF1kZ9mJ8V0Gp6w-302" source="wSSXeLF1kZ9mJ8V0Gp6w-318" target="wSSXeLF1kZ9mJ8V0Gp6w-303">
          <mxGeometry relative="1" as="geometry">
            <mxPoint x="21.428571428571427" y="48.21428571428572" as="sourcePoint" />
            <mxPoint x="42.857142857142854" y="16.071428571428573" as="targetPoint" />
          </mxGeometry>
        </mxCell>
        <mxCell id="wSSXeLF1kZ9mJ8V0Gp6w-326" style="rounded=0;orthogonalLoop=1;jettySize=auto;html=1;exitX=1;exitY=0.5;exitDx=0;exitDy=0;entryX=0;entryY=0.5;entryDx=0;entryDy=0;endArrow=none;endFill=0;endSize=6;strokeWidth=0.8;fontFamily=Times New Roman;" edge="1" parent="wSSXeLF1kZ9mJ8V0Gp6w-302" source="wSSXeLF1kZ9mJ8V0Gp6w-318" target="wSSXeLF1kZ9mJ8V0Gp6w-305">
          <mxGeometry relative="1" as="geometry">
            <mxPoint x="21.428571428571427" y="48.21428571428572" as="sourcePoint" />
            <mxPoint x="42.857142857142854" y="37.5" as="targetPoint" />
          </mxGeometry>
        </mxCell>
        <mxCell id="wSSXeLF1kZ9mJ8V0Gp6w-327" style="rounded=0;orthogonalLoop=1;jettySize=auto;html=1;exitX=1;exitY=0.5;exitDx=0;exitDy=0;entryX=0;entryY=0.5;entryDx=0;entryDy=0;endArrow=none;endFill=0;endSize=6;strokeWidth=0.8;fontFamily=Times New Roman;" edge="1" parent="wSSXeLF1kZ9mJ8V0Gp6w-302" source="wSSXeLF1kZ9mJ8V0Gp6w-318" target="wSSXeLF1kZ9mJ8V0Gp6w-306">
          <mxGeometry relative="1" as="geometry">
            <mxPoint x="21.428571428571427" y="48.21428571428572" as="sourcePoint" />
            <mxPoint x="42.857142857142854" y="58.92857142857142" as="targetPoint" />
          </mxGeometry>
        </mxCell>
        <mxCell id="wSSXeLF1kZ9mJ8V0Gp6w-328" style="rounded=0;orthogonalLoop=1;jettySize=auto;html=1;exitX=1;exitY=0.5;exitDx=0;exitDy=0;entryX=0;entryY=0.5;entryDx=0;entryDy=0;endArrow=none;endFill=0;endSize=6;strokeWidth=0.8;fontFamily=Times New Roman;" edge="1" parent="wSSXeLF1kZ9mJ8V0Gp6w-302" source="wSSXeLF1kZ9mJ8V0Gp6w-319" target="wSSXeLF1kZ9mJ8V0Gp6w-304">
          <mxGeometry relative="1" as="geometry">
            <mxPoint x="21.428571428571427" y="48.21428571428572" as="sourcePoint" />
            <mxPoint x="42.857142857142854" y="80.35714285714286" as="targetPoint" />
          </mxGeometry>
        </mxCell>
        <mxCell id="wSSXeLF1kZ9mJ8V0Gp6w-329" style="rounded=0;orthogonalLoop=1;jettySize=auto;html=1;exitX=1;exitY=0.5;exitDx=0;exitDy=0;entryX=0;entryY=0.5;entryDx=0;entryDy=0;endArrow=none;endFill=0;endSize=6;strokeWidth=0.8;fontFamily=Times New Roman;" edge="1" parent="wSSXeLF1kZ9mJ8V0Gp6w-302" source="wSSXeLF1kZ9mJ8V0Gp6w-319" target="wSSXeLF1kZ9mJ8V0Gp6w-303">
          <mxGeometry relative="1" as="geometry">
            <mxPoint x="21.428571428571427" y="69.64285714285714" as="sourcePoint" />
            <mxPoint x="42.857142857142854" y="16.071428571428573" as="targetPoint" />
          </mxGeometry>
        </mxCell>
        <mxCell id="wSSXeLF1kZ9mJ8V0Gp6w-330" style="rounded=0;orthogonalLoop=1;jettySize=auto;html=1;exitX=1;exitY=0.5;exitDx=0;exitDy=0;entryX=0;entryY=0.5;entryDx=0;entryDy=0;endArrow=none;endFill=0;endSize=6;strokeWidth=0.8;fontFamily=Times New Roman;" edge="1" parent="wSSXeLF1kZ9mJ8V0Gp6w-302" source="wSSXeLF1kZ9mJ8V0Gp6w-319" target="wSSXeLF1kZ9mJ8V0Gp6w-305">
          <mxGeometry relative="1" as="geometry">
            <mxPoint x="21.428571428571427" y="69.64285714285714" as="sourcePoint" />
            <mxPoint x="42.857142857142854" y="37.5" as="targetPoint" />
          </mxGeometry>
        </mxCell>
        <mxCell id="wSSXeLF1kZ9mJ8V0Gp6w-331" style="rounded=0;orthogonalLoop=1;jettySize=auto;html=1;exitX=1;exitY=0.5;exitDx=0;exitDy=0;entryX=0;entryY=0.5;entryDx=0;entryDy=0;endArrow=none;endFill=0;endSize=6;strokeWidth=0.8;fontFamily=Times New Roman;" edge="1" parent="wSSXeLF1kZ9mJ8V0Gp6w-302" source="wSSXeLF1kZ9mJ8V0Gp6w-319" target="wSSXeLF1kZ9mJ8V0Gp6w-306">
          <mxGeometry relative="1" as="geometry">
            <mxPoint x="21.428571428571427" y="69.64285714285714" as="sourcePoint" />
            <mxPoint x="42.857142857142854" y="58.92857142857142" as="targetPoint" />
          </mxGeometry>
        </mxCell>
        <mxCell id="wSSXeLF1kZ9mJ8V0Gp6w-332" value="···" style="text;html=1;align=center;verticalAlign=middle;resizable=0;points=[];autosize=1;strokeColor=none;fillColor=none;fontFamily=Times New Roman;fontStyle=1;fontSize=24;" vertex="1" parent="1">
          <mxGeometry x="384" y="169.5" width="50" height="40" as="geometry" />
        </mxCell>
        <mxCell id="wSSXeLF1kZ9mJ8V0Gp6w-341" style="rounded=0;orthogonalLoop=1;jettySize=auto;html=1;exitX=0.5;exitY=0;exitDx=0;exitDy=0;entryX=0.5;entryY=1;entryDx=0;entryDy=0;dashed=1;endArrow=none;endFill=0;" edge="1" parent="1">
          <mxGeometry relative="1" as="geometry">
            <mxPoint x="309" y="150" as="sourcePoint" />
            <mxPoint x="309" y="245" as="targetPoint" />
          </mxGeometry>
        </mxCell>
        <mxCell id="wSSXeLF1kZ9mJ8V0Gp6w-343" value="&lt;span style=&quot;&quot;&gt;\(f^{(N)}(\boldsymbol{\theta}_N;\cdot)\)&lt;/span&gt;" style="text;html=1;align=center;verticalAlign=middle;resizable=0;points=[];autosize=1;strokeColor=none;fillColor=none;fontFamily=Times New Roman;fontStyle=0" vertex="1" parent="1">
          <mxGeometry x="360.5" y="220" width="220" height="30" as="geometry" />
        </mxCell>
        <mxCell id="wSSXeLF1kZ9mJ8V0Gp6w-355" value="" style="shape=image;html=1;verticalAlign=top;verticalLabelPosition=bottom;labelBackgroundColor=#ffffff;imageAspect=0;aspect=fixed;image=https://cdn1.iconfinder.com/data/icons/DarkGlass_Reworked/128x128/actions/fileclose.png" vertex="1" parent="1">
          <mxGeometry x="311" y="91.75" width="15" height="15" as="geometry" />
        </mxCell>
        <mxCell id="wSSXeLF1kZ9mJ8V0Gp6w-356" value="2.fail" style="text;html=1;align=center;verticalAlign=middle;resizable=0;points=[];autosize=1;strokeColor=none;fillColor=none;fontColor=#FF0000;fontFamily=Times New Roman;fontSize=12;fontStyle=1" vertex="1" parent="1">
          <mxGeometry x="293.5" y="98" width="50" height="30" as="geometry" />
        </mxCell>
        <mxCell id="wSSXeLF1kZ9mJ8V0Gp6w-357" value="" style="shape=image;verticalLabelPosition=bottom;labelBackgroundColor=default;verticalAlign=top;aspect=fixed;imageAspect=0;image=data:image/svg+xml,PHN2ZyB4bWxuczp4bGluaz0iaHR0cDovL3d3dy53My5vcmcvMTk5OS94bGluayIgeG1sbnM9Imh0dHA6Ly93d3cudzMub3JnLzIwMDAvc3ZnIiBoZWlnaHQ9IjIwMCIgd2lkdGg9IjIwMCIgdmVyc2lvbj0iMS4xIiB2aWV3Qm94PSIwIDAgMTAyNCAxMDI0IiBjbGFzcz0iaWNvbiI+PHBhdGggZmlsbD0iIzEzMjI3YSIgZD0iTTgyOCAzMDRjMCAxMDUuMi01OS43IDE5Ni41LTE0Ny4xIDI0MS43LTIzLjYgMTIuMi00Mi44IDMwLjUtNTYuMiA1Mi40LTE1LjcgMjUuOC0yMy4yIDU2LjYtMjAgODguMyAxIDkuNC02LjQgMTcuNi0xNS45IDE3LjZINDQ2LjNjLTE4LjkgMC0zNC4zLTE1LjMtMzQuMy0zNC4zIDAtMTI3LjQgNzEuMy0yNDMgMTgzLjItMzAzLjkgMjQuMy0xMy4yIDQwLjktMzMuNyA0MC43LTY1LjItMC4yLTQyLjUtMzUuNC03Ni42LTc3LjktNzYuNmgtNTBjLTMxLjkgMC01OS41IDE4LjgtNzIuMyA0NS44YTMxLjk4IDMxLjk4IDAgMCAxLTI4LjkgMTguMmgtMTM0Yy0yMC4zIDAtMzUuNC0xOC42LTMxLjQtMzguNCAxLjgtOC43IDMuOS0xNy4yIDYuNS0yNS42QzI4Mi4xIDExMi44IDM4NS42IDMyIDUwOCAzMmg0OGM3NS4xIDAgMTQzLjEgMzAuNCAxOTIuMyA3OS43Qzc5Ny42IDE2MC45IDgyOCAyMjguOSA4MjggMzA0ek02MzYgODY0YzAgMzUuMy0xNC4zIDY3LjMtMzcuNSA5MC41LTIzLjIgMjMuMi01NS4yIDM3LjUtOTAuNSAzNy41cy02Ny4zLTE0LjMtOTAuNS0zNy41QzM5NC4zIDkzMS4zIDM4MCA4OTkuMyAzODAgODY0YzAtNzAuNyA1Ny4zLTEyOCAxMjgtMTI4IDM1LjMgMCA2Ny4zIDE0LjMgOTAuNSAzNy41IDIzLjIgMjMuMiAzNy41IDU1LjIgMzcuNSA5MC41eiIvPjwvc3ZnPg==;" vertex="1" parent="1">
          <mxGeometry x="110" y="191" width="30" height="30" as="geometry" />
        </mxCell>
      </root>
    </mxGraphModel>
  </diagram>
</mxfile>
